<svg width="258" height="258" viewBox="0 0 258 258" fill="none" xmlns="http://www.w3.org/2000/svg">
<g filter="url(#filter0_d)">
<rect x="4" width="250" height="250" fill="#F5F5F5"/>
<path d="M41.9863 161H38.9688V154.838H33.3145V161H30.2871V146.723H33.3145V152.318H38.9688V146.723H41.9863V161ZM48.627 153.441H49.623C50.554 153.441 51.2507 153.259 51.7129 152.895C52.1751 152.523 52.4062 151.986 52.4062 151.283C52.4062 150.574 52.2109 150.049 51.8203 149.711C51.4362 149.372 50.8307 149.203 50.0039 149.203H48.627V153.441ZM55.4629 151.176C55.4629 152.712 54.9811 153.887 54.0176 154.701C53.0605 155.515 51.6966 155.922 49.9258 155.922H48.627V161H45.5996V146.723H50.1602C51.8919 146.723 53.207 147.097 54.1055 147.846C55.0104 148.588 55.4629 149.698 55.4629 151.176ZM64.2227 149.037C63.0833 149.037 62.2012 149.467 61.5762 150.326C60.9512 151.179 60.6387 152.37 60.6387 153.9C60.6387 157.084 61.8333 158.676 64.2227 158.676C65.2253 158.676 66.4395 158.425 67.8652 157.924V160.463C66.6934 160.951 65.3848 161.195 63.9395 161.195C61.8626 161.195 60.2741 160.567 59.1738 159.311C58.0736 158.048 57.5234 156.238 57.5234 153.881C57.5234 152.396 57.7936 151.098 58.334 149.984C58.8743 148.865 59.6491 148.008 60.6582 147.416C61.6738 146.817 62.862 146.518 64.2227 146.518C65.6094 146.518 67.0026 146.853 68.4023 147.523L67.4258 149.984C66.8919 149.73 66.3548 149.509 65.8145 149.32C65.2741 149.132 64.7435 149.037 64.2227 149.037ZM79.3301 161.195C78.0475 161.195 77.0384 160.697 76.3027 159.701C75.5736 158.705 75.209 157.325 75.209 155.561C75.209 153.77 75.5801 152.377 76.3223 151.381C77.071 150.378 78.0996 149.877 79.4082 149.877C80.7819 149.877 81.8301 150.411 82.5527 151.479H82.6504C82.5007 150.665 82.4258 149.939 82.4258 149.301V145.805H85.4141V161H83.1289L82.5527 159.584H82.4258C81.7487 160.658 80.7168 161.195 79.3301 161.195ZM80.375 158.822C81.1367 158.822 81.6934 158.601 82.0449 158.158C82.403 157.715 82.5983 156.964 82.6309 155.902V155.58C82.6309 154.408 82.4486 153.568 82.084 153.061C81.7259 152.553 81.14 152.299 80.3262 152.299C79.6621 152.299 79.1445 152.582 78.7734 153.148C78.4089 153.708 78.2266 154.525 78.2266 155.6C78.2266 156.674 78.4121 157.481 78.7832 158.021C79.1543 158.555 79.6849 158.822 80.375 158.822ZM90.9023 155.521C90.9023 156.602 91.0781 157.419 91.4297 157.973C91.7878 158.526 92.3672 158.803 93.168 158.803C93.9622 158.803 94.5319 158.529 94.877 157.982C95.2285 157.429 95.4043 156.609 95.4043 155.521C95.4043 154.441 95.2285 153.63 94.877 153.09C94.5254 152.549 93.9492 152.279 93.1484 152.279C92.3542 152.279 91.7812 152.549 91.4297 153.09C91.0781 153.624 90.9023 154.434 90.9023 155.521ZM98.4512 155.521C98.4512 157.299 97.9824 158.689 97.0449 159.691C96.1074 160.694 94.8021 161.195 93.1289 161.195C92.0807 161.195 91.1562 160.967 90.3555 160.512C89.5547 160.049 88.9395 159.389 88.5098 158.529C88.0801 157.67 87.8652 156.667 87.8652 155.521C87.8652 153.738 88.3307 152.351 89.2617 151.361C90.1927 150.372 91.5013 149.877 93.1875 149.877C94.2357 149.877 95.1602 150.105 95.9609 150.561C96.7617 151.016 97.377 151.671 97.8066 152.523C98.2363 153.376 98.4512 154.376 98.4512 155.521ZM105.346 161.195C101.947 161.195 100.248 159.33 100.248 155.6C100.248 153.744 100.71 152.328 101.635 151.352C102.559 150.368 103.884 149.877 105.609 149.877C106.872 149.877 108.005 150.124 109.008 150.619L108.129 152.924C107.66 152.735 107.224 152.582 106.82 152.465C106.417 152.341 106.013 152.279 105.609 152.279C104.06 152.279 103.285 153.38 103.285 155.58C103.285 157.715 104.06 158.783 105.609 158.783C106.182 158.783 106.713 158.708 107.201 158.559C107.689 158.402 108.178 158.161 108.666 157.836V160.385C108.184 160.691 107.696 160.902 107.201 161.02C106.713 161.137 106.094 161.195 105.346 161.195ZM118.939 161L118.539 159.604H118.383C118.064 160.111 117.611 160.505 117.025 160.785C116.439 161.059 115.772 161.195 115.023 161.195C113.741 161.195 112.774 160.854 112.123 160.17C111.472 159.48 111.146 158.49 111.146 157.201V150.082H114.125V156.459C114.125 157.247 114.265 157.839 114.545 158.236C114.825 158.627 115.271 158.822 115.883 158.822C116.716 158.822 117.318 158.546 117.689 157.992C118.061 157.432 118.246 156.508 118.246 155.219V150.082H121.225V161H118.939ZM134.125 161H131.146V154.623C131.146 153.835 131.013 153.246 130.746 152.855C130.486 152.458 130.072 152.26 129.506 152.26C128.744 152.26 128.191 152.54 127.846 153.1C127.501 153.66 127.328 154.581 127.328 155.863V161H124.35V150.082H126.625L127.025 151.479H127.191C127.484 150.977 127.908 150.587 128.461 150.307C129.014 150.02 129.649 149.877 130.365 149.877C131.999 149.877 133.106 150.411 133.686 151.479H133.949C134.242 150.971 134.672 150.577 135.238 150.297C135.811 150.017 136.456 149.877 137.172 149.877C138.409 149.877 139.343 150.196 139.975 150.834C140.613 151.465 140.932 152.481 140.932 153.881V161H137.943V154.623C137.943 153.835 137.81 153.246 137.543 152.855C137.283 152.458 136.869 152.26 136.303 152.26C135.574 152.26 135.027 152.52 134.662 153.041C134.304 153.562 134.125 154.389 134.125 155.521V161ZM148.52 151.996C147.888 151.996 147.393 152.198 147.035 152.602C146.677 152.999 146.472 153.565 146.42 154.301H150.6C150.587 153.565 150.395 152.999 150.023 152.602C149.652 152.198 149.151 151.996 148.52 151.996ZM148.939 161.195C147.182 161.195 145.808 160.71 144.818 159.74C143.829 158.77 143.334 157.396 143.334 155.619C143.334 153.79 143.79 152.377 144.701 151.381C145.619 150.378 146.885 149.877 148.5 149.877C150.043 149.877 151.244 150.316 152.104 151.195C152.963 152.074 153.393 153.288 153.393 154.838V156.283H146.352C146.384 157.13 146.635 157.79 147.104 158.266C147.572 158.741 148.23 158.979 149.076 158.979C149.734 158.979 150.355 158.91 150.941 158.773C151.527 158.637 152.139 158.419 152.777 158.119V160.424C152.257 160.684 151.7 160.876 151.107 161C150.515 161.13 149.792 161.195 148.939 161.195ZM165.893 161H162.914V154.623C162.914 153.835 162.774 153.246 162.494 152.855C162.214 152.458 161.768 152.26 161.156 152.26C160.323 152.26 159.721 152.54 159.35 153.1C158.979 153.653 158.793 154.574 158.793 155.863V161H155.814V150.082H158.09L158.49 151.479H158.656C158.988 150.951 159.444 150.554 160.023 150.287C160.609 150.014 161.273 149.877 162.016 149.877C163.285 149.877 164.249 150.222 164.906 150.912C165.564 151.596 165.893 152.585 165.893 153.881V161ZM173.559 158.822C174.079 158.822 174.704 158.708 175.434 158.48V160.697C174.691 161.029 173.78 161.195 172.699 161.195C171.508 161.195 170.639 160.896 170.092 160.297C169.551 159.691 169.281 158.786 169.281 157.582V152.318H167.855V151.059L169.496 150.062L170.355 147.758H172.26V150.082H175.316V152.318H172.26V157.582C172.26 158.005 172.377 158.318 172.611 158.52C172.852 158.721 173.168 158.822 173.559 158.822ZM184.584 161L184.008 159.516H183.93C183.428 160.147 182.911 160.587 182.377 160.834C181.85 161.075 181.16 161.195 180.307 161.195C179.258 161.195 178.432 160.896 177.826 160.297C177.227 159.698 176.928 158.845 176.928 157.738C176.928 156.579 177.331 155.727 178.139 155.18C178.952 154.626 180.176 154.32 181.811 154.262L183.705 154.203V153.725C183.705 152.618 183.139 152.064 182.006 152.064C181.133 152.064 180.108 152.328 178.93 152.855L177.943 150.844C179.2 150.186 180.593 149.857 182.123 149.857C183.588 149.857 184.711 150.176 185.492 150.814C186.273 151.452 186.664 152.423 186.664 153.725V161H184.584ZM183.705 155.941L182.553 155.98C181.687 156.007 181.042 156.163 180.619 156.449C180.196 156.736 179.984 157.172 179.984 157.758C179.984 158.598 180.466 159.018 181.43 159.018C182.12 159.018 182.67 158.819 183.08 158.422C183.497 158.025 183.705 157.497 183.705 156.84V155.941ZM194.34 158.822C194.861 158.822 195.486 158.708 196.215 158.48V160.697C195.473 161.029 194.561 161.195 193.48 161.195C192.289 161.195 191.42 160.896 190.873 160.297C190.333 159.691 190.062 158.786 190.062 157.582V152.318H188.637V151.059L190.277 150.062L191.137 147.758H193.041V150.082H196.098V152.318H193.041V157.582C193.041 158.005 193.158 158.318 193.393 158.52C193.633 158.721 193.949 158.822 194.34 158.822ZM198.305 147.26C198.305 146.29 198.845 145.805 199.926 145.805C201.007 145.805 201.547 146.29 201.547 147.26C201.547 147.722 201.41 148.083 201.137 148.344C200.87 148.598 200.466 148.725 199.926 148.725C198.845 148.725 198.305 148.236 198.305 147.26ZM201.41 161H198.432V150.082H201.41V161ZM206.918 155.521C206.918 156.602 207.094 157.419 207.445 157.973C207.803 158.526 208.383 158.803 209.184 158.803C209.978 158.803 210.548 158.529 210.893 157.982C211.244 157.429 211.42 156.609 211.42 155.521C211.42 154.441 211.244 153.63 210.893 153.09C210.541 152.549 209.965 152.279 209.164 152.279C208.37 152.279 207.797 152.549 207.445 153.09C207.094 153.624 206.918 154.434 206.918 155.521ZM214.467 155.521C214.467 157.299 213.998 158.689 213.061 159.691C212.123 160.694 210.818 161.195 209.145 161.195C208.096 161.195 207.172 160.967 206.371 160.512C205.57 160.049 204.955 159.389 204.525 158.529C204.096 157.67 203.881 156.667 203.881 155.521C203.881 153.738 204.346 152.351 205.277 151.361C206.208 150.372 207.517 149.877 209.203 149.877C210.251 149.877 211.176 150.105 211.977 150.561C212.777 151.016 213.393 151.671 213.822 152.523C214.252 153.376 214.467 154.376 214.467 155.521ZM227.006 161H224.027V154.623C224.027 153.835 223.887 153.246 223.607 152.855C223.327 152.458 222.882 152.26 222.27 152.26C221.436 152.26 220.834 152.54 220.463 153.1C220.092 153.653 219.906 154.574 219.906 155.863V161H216.928V150.082H219.203L219.604 151.479H219.77C220.102 150.951 220.557 150.554 221.137 150.287C221.723 150.014 222.387 149.877 223.129 149.877C224.398 149.877 225.362 150.222 226.02 150.912C226.677 151.596 227.006 152.585 227.006 153.881V161Z" fill="black"/>
<path d="M71.8145 194.387H70.1914V200H69.1367V194.387H68.0117V193.895L69.1367 193.531V193.162C69.1367 192.381 69.3066 191.795 69.6465 191.404C69.9902 191.014 70.5176 190.818 71.2285 190.818C71.6387 190.818 72.0547 190.891 72.4766 191.035L72.1953 191.861C71.832 191.744 71.5137 191.686 71.2402 191.686C70.8848 191.686 70.6211 191.803 70.4492 192.037C70.2773 192.271 70.1914 192.643 70.1914 193.15V193.566H71.8145V194.387ZM74.041 200H72.9863V193.566H74.041V200ZM72.9043 191.826C72.9043 191.592 72.9629 191.422 73.0801 191.316C73.2012 191.211 73.3496 191.158 73.5254 191.158C73.6895 191.158 73.832 191.211 73.9531 191.316C74.0781 191.422 74.1406 191.592 74.1406 191.826C74.1406 192.057 74.0781 192.227 73.9531 192.336C73.832 192.445 73.6895 192.5 73.5254 192.5C73.3496 192.5 73.2012 192.445 73.0801 192.336C72.9629 192.227 72.9043 192.057 72.9043 191.826ZM80.4629 200V195.887C80.4629 195.363 80.3457 194.975 80.1113 194.721C79.8809 194.463 79.5176 194.334 79.0215 194.334C78.3613 194.334 77.8809 194.518 77.5801 194.885C77.2832 195.248 77.1348 195.842 77.1348 196.666V200H76.0801V193.566H76.9297L77.0879 194.445H77.1465C77.3457 194.129 77.625 193.885 77.9844 193.713C78.3438 193.537 78.7402 193.449 79.1738 193.449C79.9629 193.449 80.5488 193.641 80.9316 194.023C81.3145 194.406 81.5059 195.002 81.5059 195.811V200H80.4629ZM85.7773 200.117C84.9414 200.117 84.293 199.828 83.832 199.25C83.3711 198.672 83.1406 197.854 83.1406 196.795C83.1406 195.744 83.3711 194.924 83.832 194.334C84.2969 193.744 84.9492 193.449 85.7891 193.449C86.6523 193.449 87.3164 193.766 87.7812 194.398H87.8574C87.8457 194.32 87.8301 194.164 87.8105 193.93C87.791 193.691 87.7812 193.531 87.7812 193.449V190.883H88.8359V200H87.9863L87.8281 199.139H87.7812C87.332 199.791 86.6641 200.117 85.7773 200.117ZM85.9473 199.244C86.5879 199.244 87.0547 199.07 87.3477 198.723C87.6445 198.371 87.793 197.797 87.793 197V196.807C87.793 195.912 87.6426 195.275 87.3418 194.896C87.0449 194.514 86.5762 194.322 85.9355 194.322C85.3926 194.322 84.9727 194.539 84.6758 194.973C84.3789 195.402 84.2305 196.018 84.2305 196.818C84.2305 197.615 84.377 198.219 84.6699 198.629C84.9668 199.039 85.3926 199.244 85.9473 199.244ZM96.2773 200.117C95.4414 200.117 94.793 199.828 94.332 199.25C93.8711 198.672 93.6406 197.854 93.6406 196.795C93.6406 195.744 93.8711 194.924 94.332 194.334C94.7969 193.744 95.4492 193.449 96.2891 193.449C97.1523 193.449 97.8164 193.766 98.2812 194.398H98.3574C98.3457 194.32 98.3301 194.164 98.3105 193.93C98.291 193.691 98.2812 193.531 98.2812 193.449V190.883H99.3359V200H98.4863L98.3281 199.139H98.2812C97.832 199.791 97.1641 200.117 96.2773 200.117ZM96.4473 199.244C97.0879 199.244 97.5547 199.07 97.8477 198.723C98.1445 198.371 98.293 197.797 98.293 197V196.807C98.293 195.912 98.1426 195.275 97.8418 194.896C97.5449 194.514 97.0762 194.322 96.4355 194.322C95.8926 194.322 95.4727 194.539 95.1758 194.973C94.8789 195.402 94.7305 196.018 94.7305 196.818C94.7305 197.615 94.877 198.219 95.1699 198.629C95.4668 199.039 95.8926 199.244 96.4473 199.244ZM106.971 196.771C106.971 197.822 106.705 198.643 106.174 199.232C105.643 199.822 104.908 200.117 103.971 200.117C103.389 200.117 102.873 199.982 102.424 199.713C101.975 199.439 101.629 199.049 101.387 198.541C101.145 198.033 101.023 197.443 101.023 196.771C101.023 195.725 101.285 194.91 101.809 194.328C102.332 193.742 103.066 193.449 104.012 193.449C104.918 193.449 105.637 193.748 106.168 194.346C106.703 194.939 106.971 195.748 106.971 196.771ZM102.113 196.771C102.113 197.58 102.271 198.195 102.588 198.617C102.908 199.035 103.379 199.244 104 199.244C104.613 199.244 105.08 199.035 105.4 198.617C105.721 198.195 105.881 197.58 105.881 196.771C105.881 195.963 105.719 195.355 105.395 194.949C105.074 194.539 104.604 194.334 103.982 194.334C102.736 194.334 102.113 195.146 102.113 196.771ZM111.225 200.117C110.299 200.117 109.578 199.834 109.062 199.268C108.547 198.697 108.289 197.881 108.289 196.818C108.289 195.74 108.549 194.91 109.068 194.328C109.592 193.742 110.336 193.449 111.301 193.449C111.613 193.449 111.922 193.482 112.227 193.549C112.535 193.611 112.789 193.693 112.988 193.795L112.666 194.674C112.123 194.471 111.66 194.369 111.277 194.369C110.629 194.369 110.15 194.574 109.842 194.984C109.533 195.391 109.379 195.998 109.379 196.807C109.379 197.584 109.533 198.18 109.842 198.594C110.15 199.004 110.607 199.209 111.213 199.209C111.779 199.209 112.336 199.084 112.883 198.834V199.771C112.438 200.002 111.885 200.117 111.225 200.117ZM115.408 193.566V197.709C115.408 198.229 115.523 198.615 115.754 198.869C115.988 199.119 116.35 199.244 116.838 199.244C117.498 199.244 117.979 199.061 118.279 198.693C118.58 198.326 118.73 197.734 118.73 196.918V193.566H119.791V200H118.924L118.771 199.15H118.719C118.527 199.459 118.256 199.697 117.904 199.865C117.553 200.033 117.145 200.117 116.68 200.117C115.906 200.117 115.322 199.932 114.928 199.561C114.537 199.189 114.342 198.596 114.342 197.779V193.566H115.408ZM130.016 200V195.857C130.016 194.842 129.58 194.334 128.709 194.334C128.111 194.334 127.672 194.508 127.391 194.855C127.109 195.203 126.969 195.734 126.969 196.449V200H125.92V195.857C125.92 195.35 125.812 194.969 125.598 194.715C125.387 194.461 125.055 194.334 124.602 194.334C124.008 194.334 123.572 194.516 123.295 194.879C123.021 195.242 122.885 195.838 122.885 196.666V200H121.83V193.566H122.68L122.838 194.445H122.896C123.08 194.133 123.338 193.889 123.67 193.713C124.006 193.537 124.381 193.449 124.795 193.449C125.803 193.449 126.459 193.809 126.764 194.527H126.822C127.029 194.184 127.311 193.918 127.666 193.73C128.025 193.543 128.432 193.449 128.885 193.449C129.611 193.449 130.154 193.637 130.514 194.012C130.877 194.387 131.059 194.986 131.059 195.811V200H130.016ZM135.793 200.117C134.828 200.117 134.07 199.826 133.52 199.244C132.973 198.658 132.699 197.854 132.699 196.83C132.699 195.799 132.955 194.979 133.467 194.369C133.979 193.756 134.67 193.449 135.541 193.449C136.35 193.449 136.994 193.711 137.475 194.234C137.955 194.754 138.195 195.459 138.195 196.35V196.988H133.789C133.809 197.719 133.994 198.273 134.346 198.652C134.697 199.031 135.195 199.221 135.84 199.221C136.184 199.221 136.51 199.191 136.818 199.133C137.127 199.07 137.488 198.951 137.902 198.775V199.701C137.547 199.854 137.213 199.961 136.9 200.023C136.588 200.086 136.219 200.117 135.793 200.117ZM135.529 194.311C135.025 194.311 134.627 194.473 134.334 194.797C134.041 195.121 133.867 195.572 133.812 196.15H137.088C137.08 195.549 136.941 195.092 136.672 194.779C136.402 194.467 136.021 194.311 135.529 194.311ZM144.213 200V195.887C144.213 195.363 144.096 194.975 143.861 194.721C143.631 194.463 143.268 194.334 142.771 194.334C142.111 194.334 141.631 194.518 141.33 194.885C141.033 195.248 140.885 195.842 140.885 196.666V200H139.83V193.566H140.68L140.838 194.445H140.896C141.096 194.129 141.375 193.885 141.734 193.713C142.094 193.537 142.49 193.449 142.924 193.449C143.713 193.449 144.299 193.641 144.682 194.023C145.064 194.406 145.256 195.002 145.256 195.811V200H144.213ZM149.398 199.256C149.535 199.256 149.695 199.242 149.879 199.215C150.062 199.188 150.201 199.156 150.295 199.121V199.93C150.197 199.973 150.045 200.014 149.838 200.053C149.635 200.096 149.428 200.117 149.217 200.117C147.959 200.117 147.33 199.455 147.33 198.131V194.387H146.422V193.883L147.342 193.461L147.764 192.09H148.391V193.566H150.248V194.387H148.391V198.102C148.391 198.473 148.479 198.758 148.654 198.957C148.834 199.156 149.082 199.256 149.398 199.256ZM155.557 200L155.352 199.086H155.305C154.984 199.488 154.664 199.762 154.344 199.906C154.027 200.047 153.627 200.117 153.143 200.117C152.51 200.117 152.014 199.951 151.654 199.619C151.295 199.287 151.115 198.818 151.115 198.213C151.115 196.908 152.145 196.225 154.203 196.162L155.293 196.121V195.74C155.293 195.252 155.188 194.893 154.977 194.662C154.766 194.428 154.428 194.311 153.963 194.311C153.623 194.311 153.301 194.361 152.996 194.463C152.695 194.564 152.412 194.678 152.146 194.803L151.824 194.012C152.148 193.84 152.502 193.705 152.885 193.607C153.268 193.51 153.646 193.461 154.021 193.461C154.799 193.461 155.377 193.633 155.756 193.977C156.135 194.32 156.324 194.867 156.324 195.617V200H155.557ZM153.383 199.268C153.973 199.268 154.436 199.109 154.771 198.793C155.111 198.473 155.281 198.02 155.281 197.434V196.854L154.332 196.895C153.594 196.922 153.055 197.039 152.715 197.246C152.379 197.453 152.211 197.779 152.211 198.225C152.211 198.561 152.312 198.818 152.516 198.998C152.723 199.178 153.012 199.268 153.383 199.268ZM160.473 199.256C160.609 199.256 160.77 199.242 160.953 199.215C161.137 199.188 161.275 199.156 161.369 199.121V199.93C161.271 199.973 161.119 200.014 160.912 200.053C160.709 200.096 160.502 200.117 160.291 200.117C159.033 200.117 158.404 199.455 158.404 198.131V194.387H157.496V193.883L158.416 193.461L158.838 192.09H159.465V193.566H161.322V194.387H159.465V198.102C159.465 198.473 159.553 198.758 159.729 198.957C159.908 199.156 160.156 199.256 160.473 199.256ZM163.713 200H162.658V193.566H163.713V200ZM162.576 191.826C162.576 191.592 162.635 191.422 162.752 191.316C162.873 191.211 163.021 191.158 163.197 191.158C163.361 191.158 163.504 191.211 163.625 191.316C163.75 191.422 163.812 191.592 163.812 191.826C163.812 192.057 163.75 192.227 163.625 192.336C163.504 192.445 163.361 192.5 163.197 192.5C163.021 192.5 162.873 192.445 162.752 192.336C162.635 192.227 162.576 192.057 162.576 191.826ZM171.342 196.771C171.342 197.822 171.076 198.643 170.545 199.232C170.014 199.822 169.279 200.117 168.342 200.117C167.76 200.117 167.244 199.982 166.795 199.713C166.346 199.439 166 199.049 165.758 198.541C165.516 198.033 165.395 197.443 165.395 196.771C165.395 195.725 165.656 194.91 166.18 194.328C166.703 193.742 167.438 193.449 168.383 193.449C169.289 193.449 170.008 193.748 170.539 194.346C171.074 194.939 171.342 195.748 171.342 196.771ZM166.484 196.771C166.484 197.58 166.643 198.195 166.959 198.617C167.279 199.035 167.75 199.244 168.371 199.244C168.984 199.244 169.451 199.035 169.771 198.617C170.092 198.195 170.252 197.58 170.252 196.771C170.252 195.963 170.09 195.355 169.766 194.949C169.445 194.539 168.975 194.334 168.354 194.334C167.107 194.334 166.484 195.146 166.484 196.771ZM177.4 200V195.887C177.4 195.363 177.283 194.975 177.049 194.721C176.818 194.463 176.455 194.334 175.959 194.334C175.299 194.334 174.818 194.518 174.518 194.885C174.221 195.248 174.072 195.842 174.072 196.666V200H173.018V193.566H173.867L174.025 194.445H174.084C174.283 194.129 174.562 193.885 174.922 193.713C175.281 193.537 175.678 193.449 176.111 193.449C176.9 193.449 177.486 193.641 177.869 194.023C178.252 194.406 178.443 195.002 178.443 195.811V200H177.4ZM184.625 198.225C184.625 198.826 184.4 199.293 183.951 199.625C183.502 199.953 182.871 200.117 182.059 200.117C181.211 200.117 180.537 199.982 180.037 199.713V198.752C180.744 199.096 181.426 199.268 182.082 199.268C182.613 199.268 183 199.182 183.242 199.01C183.484 198.838 183.605 198.607 183.605 198.318C183.605 198.064 183.488 197.85 183.254 197.674C183.023 197.498 182.611 197.297 182.018 197.07C181.412 196.836 180.986 196.637 180.74 196.473C180.494 196.305 180.312 196.117 180.195 195.91C180.082 195.703 180.025 195.451 180.025 195.154C180.025 194.627 180.24 194.211 180.67 193.906C181.1 193.602 181.689 193.449 182.439 193.449C183.17 193.449 183.854 193.594 184.49 193.883L184.133 194.721C183.48 194.447 182.893 194.311 182.369 194.311C181.932 194.311 181.6 194.381 181.373 194.521C181.146 194.658 181.033 194.848 181.033 195.09C181.033 195.324 181.131 195.52 181.326 195.676C181.521 195.828 181.977 196.041 182.691 196.314C183.227 196.514 183.621 196.699 183.875 196.871C184.133 197.043 184.322 197.236 184.443 197.451C184.564 197.666 184.625 197.924 184.625 198.225ZM73.0215 212.771C73.0215 213.822 72.7559 214.643 72.2246 215.232C71.6934 215.822 70.959 216.117 70.0215 216.117C69.4395 216.117 68.9238 215.982 68.4746 215.713C68.0254 215.439 67.6797 215.049 67.4375 214.541C67.1953 214.033 67.0742 213.443 67.0742 212.771C67.0742 211.725 67.3359 210.91 67.8594 210.328C68.3828 209.742 69.1172 209.449 70.0625 209.449C70.9688 209.449 71.6875 209.748 72.2188 210.346C72.7539 210.939 73.0215 211.748 73.0215 212.771ZM68.1641 212.771C68.1641 213.58 68.3223 214.195 68.6387 214.617C68.959 215.035 69.4297 215.244 70.0508 215.244C70.6641 215.244 71.1309 215.035 71.4512 214.617C71.7715 214.195 71.9316 213.58 71.9316 212.771C71.9316 211.963 71.7695 211.355 71.4453 210.949C71.125 210.539 70.6543 210.334 70.0332 210.334C68.7871 210.334 68.1641 211.146 68.1641 212.771ZM77.6621 210.387H76.0391V216H74.9844V210.387H73.8594V209.895L74.9844 209.531V209.162C74.9844 208.381 75.1543 207.795 75.4941 207.404C75.8379 207.014 76.3652 206.818 77.0762 206.818C77.4863 206.818 77.9023 206.891 78.3242 207.035L78.043 207.861C77.6797 207.744 77.3613 207.686 77.0879 207.686C76.7324 207.686 76.4688 207.803 76.2969 208.037C76.125 208.271 76.0391 208.643 76.0391 209.15V209.566H77.6621V210.387ZM88.6484 216H87.5703V212.004H83.1758V216H82.0977V207.434H83.1758V211.055H87.5703V207.434H88.6484V216ZM96.4766 209.953C96.4766 210.828 96.1777 211.5 95.5801 211.969C94.9824 212.434 94.1406 212.666 93.0547 212.666H92.0703V216H90.9922V207.434H93.2598C95.4043 207.434 96.4766 208.273 96.4766 209.953ZM92.0703 211.74H92.9316C93.7832 211.74 94.4004 211.604 94.7832 211.33C95.166 211.053 95.3574 210.609 95.3574 210C95.3574 209.449 95.1797 209.037 94.8242 208.764C94.4688 208.49 93.9141 208.354 93.1602 208.354H92.0703V211.74ZM101.926 208.26C101.004 208.26 100.279 208.568 99.752 209.186C99.2246 209.803 98.9609 210.646 98.9609 211.717C98.9609 212.822 99.2168 213.676 99.7285 214.277C100.24 214.875 100.969 215.174 101.914 215.174C102.523 215.174 103.209 215.061 103.971 214.834V215.771C103.607 215.904 103.258 215.994 102.922 216.041C102.586 216.092 102.199 216.117 101.762 216.117C100.5 216.117 99.5273 215.734 98.8438 214.969C98.1641 214.199 97.8242 213.111 97.8242 211.705C97.8242 210.822 97.9863 210.049 98.3105 209.385C98.6387 208.721 99.1133 208.209 99.7344 207.85C100.359 207.49 101.094 207.311 101.938 207.311C102.844 207.311 103.633 207.479 104.305 207.814L103.871 208.729C103.188 208.416 102.539 208.26 101.926 208.26ZM111.857 216.117C110.994 216.117 110.33 215.807 109.865 215.186H109.795L109.818 215.426C109.85 215.73 109.865 216.002 109.865 216.24V218.883H108.811V209.566H109.678L109.818 210.445H109.865C110.115 210.094 110.404 209.84 110.732 209.684C111.061 209.527 111.439 209.449 111.869 209.449C112.705 209.449 113.354 209.74 113.814 210.322C114.279 210.9 114.512 211.717 114.512 212.771C114.512 213.822 114.279 214.643 113.814 215.232C113.35 215.822 112.697 216.117 111.857 216.117ZM111.682 210.334C111.045 210.334 110.584 210.514 110.299 210.873C110.018 211.232 109.873 211.797 109.865 212.566V212.771C109.865 213.643 110.01 214.273 110.299 214.664C110.588 215.051 111.057 215.244 111.705 215.244C112.244 215.244 112.664 215.025 112.965 214.588C113.27 214.15 113.422 213.541 113.422 212.76C113.422 211.975 113.27 211.375 112.965 210.961C112.664 210.543 112.236 210.334 111.682 210.334ZM119.193 209.449C119.479 209.449 119.73 209.473 119.949 209.52L119.82 210.492C119.582 210.438 119.35 210.41 119.123 210.41C118.783 210.41 118.467 210.504 118.174 210.691C117.885 210.879 117.658 211.139 117.494 211.471C117.33 211.799 117.248 212.164 117.248 212.566V216H116.193V209.566H117.061L117.178 210.744H117.225C117.471 210.318 117.762 209.996 118.098 209.777C118.434 209.559 118.799 209.449 119.193 209.449ZM126.623 212.771C126.623 213.822 126.357 214.643 125.826 215.232C125.295 215.822 124.561 216.117 123.623 216.117C123.041 216.117 122.525 215.982 122.076 215.713C121.627 215.439 121.281 215.049 121.039 214.541C120.797 214.033 120.676 213.443 120.676 212.771C120.676 211.725 120.938 210.91 121.461 210.328C121.984 209.742 122.719 209.449 123.664 209.449C124.57 209.449 125.289 209.748 125.82 210.346C126.355 210.939 126.623 211.748 126.623 212.771ZM121.766 212.771C121.766 213.58 121.924 214.195 122.24 214.617C122.561 215.035 123.031 215.244 123.652 215.244C124.266 215.244 124.732 215.035 125.053 214.617C125.373 214.195 125.533 213.58 125.533 212.771C125.533 211.963 125.371 211.355 125.047 210.949C124.727 210.539 124.256 210.334 123.635 210.334C122.389 210.334 121.766 211.146 121.766 212.771ZM130.748 215.256C131.396 215.256 131.867 215.082 132.16 214.734C132.457 214.383 132.605 213.82 132.605 213.047V212.795C132.605 211.936 132.457 211.311 132.16 210.92C131.863 210.529 131.385 210.334 130.725 210.334C130.186 210.334 129.768 210.549 129.471 210.979C129.178 211.404 129.031 212.014 129.031 212.807C129.031 213.604 129.174 214.211 129.459 214.629C129.748 215.047 130.178 215.256 130.748 215.256ZM132.594 215.941L132.629 215.15H132.582C132.148 215.795 131.484 216.117 130.59 216.117C129.758 216.117 129.107 215.828 128.639 215.25C128.174 214.668 127.941 213.85 127.941 212.795C127.941 211.76 128.176 210.943 128.645 210.346C129.117 209.748 129.762 209.449 130.578 209.449C131.449 209.449 132.121 209.773 132.594 210.422H132.658L132.799 209.566H133.637V216.105C133.637 217.027 133.402 217.721 132.934 218.186C132.469 218.65 131.744 218.883 130.76 218.883C129.822 218.883 129.051 218.746 128.445 218.473V217.5C129.07 217.836 129.861 218.004 130.818 218.004C131.365 218.004 131.797 217.844 132.113 217.523C132.434 217.203 132.594 216.76 132.594 216.193V215.941ZM138.682 209.449C138.967 209.449 139.219 209.473 139.438 209.52L139.309 210.492C139.07 210.438 138.838 210.41 138.611 210.41C138.271 210.41 137.955 210.504 137.662 210.691C137.373 210.879 137.146 211.139 136.982 211.471C136.818 211.799 136.736 212.164 136.736 212.566V216H135.682V209.566H136.549L136.666 210.744H136.713C136.959 210.318 137.25 209.996 137.586 209.777C137.922 209.559 138.287 209.449 138.682 209.449ZM144.494 216L144.289 215.086H144.242C143.922 215.488 143.602 215.762 143.281 215.906C142.965 216.047 142.564 216.117 142.08 216.117C141.447 216.117 140.951 215.951 140.592 215.619C140.232 215.287 140.053 214.818 140.053 214.213C140.053 212.908 141.082 212.225 143.141 212.162L144.23 212.121V211.74C144.23 211.252 144.125 210.893 143.914 210.662C143.703 210.428 143.365 210.311 142.9 210.311C142.561 210.311 142.238 210.361 141.934 210.463C141.633 210.564 141.35 210.678 141.084 210.803L140.762 210.012C141.086 209.84 141.439 209.705 141.822 209.607C142.205 209.51 142.584 209.461 142.959 209.461C143.736 209.461 144.314 209.633 144.693 209.977C145.072 210.32 145.262 210.867 145.262 211.617V216H144.494ZM142.32 215.268C142.91 215.268 143.373 215.109 143.709 214.793C144.049 214.473 144.219 214.02 144.219 213.434V212.854L143.27 212.895C142.531 212.922 141.992 213.039 141.652 213.246C141.316 213.453 141.148 213.779 141.148 214.225C141.148 214.561 141.25 214.818 141.453 214.998C141.66 215.178 141.949 215.268 142.32 215.268ZM155.445 216V211.857C155.445 210.842 155.01 210.334 154.139 210.334C153.541 210.334 153.102 210.508 152.82 210.855C152.539 211.203 152.398 211.734 152.398 212.449V216H151.35V211.857C151.35 211.35 151.242 210.969 151.027 210.715C150.816 210.461 150.484 210.334 150.031 210.334C149.438 210.334 149.002 210.516 148.725 210.879C148.451 211.242 148.314 211.838 148.314 212.666V216H147.26V209.566H148.109L148.268 210.445H148.326C148.51 210.133 148.768 209.889 149.1 209.713C149.436 209.537 149.811 209.449 150.225 209.449C151.232 209.449 151.889 209.809 152.193 210.527H152.252C152.459 210.184 152.74 209.918 153.096 209.73C153.455 209.543 153.861 209.449 154.314 209.449C155.041 209.449 155.584 209.637 155.943 210.012C156.307 210.387 156.488 210.986 156.488 211.811V216H155.445ZM166.672 216V211.857C166.672 210.842 166.236 210.334 165.365 210.334C164.768 210.334 164.328 210.508 164.047 210.855C163.766 211.203 163.625 211.734 163.625 212.449V216H162.576V211.857C162.576 211.35 162.469 210.969 162.254 210.715C162.043 210.461 161.711 210.334 161.258 210.334C160.664 210.334 160.229 210.516 159.951 210.879C159.678 211.242 159.541 211.838 159.541 212.666V216H158.486V209.566H159.336L159.494 210.445H159.553C159.736 210.133 159.994 209.889 160.326 209.713C160.662 209.537 161.037 209.449 161.451 209.449C162.459 209.449 163.115 209.809 163.42 210.527H163.479C163.686 210.184 163.967 209.918 164.322 209.73C164.682 209.543 165.088 209.449 165.541 209.449C166.268 209.449 166.811 209.637 167.17 210.012C167.533 210.387 167.715 210.986 167.715 211.811V216H166.672ZM170.768 216H169.713V209.566H170.768V216ZM169.631 207.826C169.631 207.592 169.689 207.422 169.807 207.316C169.928 207.211 170.076 207.158 170.252 207.158C170.416 207.158 170.559 207.211 170.68 207.316C170.805 207.422 170.867 207.592 170.867 207.826C170.867 208.057 170.805 208.227 170.68 208.336C170.559 208.445 170.416 208.5 170.252 208.5C170.076 208.5 169.928 208.445 169.807 208.336C169.689 208.227 169.631 208.057 169.631 207.826ZM177.189 216V211.887C177.189 211.363 177.072 210.975 176.838 210.721C176.607 210.463 176.244 210.334 175.748 210.334C175.088 210.334 174.607 210.518 174.307 210.885C174.01 211.248 173.861 211.842 173.861 212.666V216H172.807V209.566H173.656L173.814 210.445H173.873C174.072 210.129 174.352 209.885 174.711 209.713C175.07 209.537 175.467 209.449 175.9 209.449C176.689 209.449 177.275 209.641 177.658 210.023C178.041 210.406 178.232 211.002 178.232 211.811V216H177.189ZM182.674 215.256C183.322 215.256 183.793 215.082 184.086 214.734C184.383 214.383 184.531 213.82 184.531 213.047V212.795C184.531 211.936 184.383 211.311 184.086 210.92C183.789 210.529 183.311 210.334 182.65 210.334C182.111 210.334 181.693 210.549 181.396 210.979C181.104 211.404 180.957 212.014 180.957 212.807C180.957 213.604 181.1 214.211 181.385 214.629C181.674 215.047 182.104 215.256 182.674 215.256ZM184.52 215.941L184.555 215.15H184.508C184.074 215.795 183.41 216.117 182.516 216.117C181.684 216.117 181.033 215.828 180.564 215.25C180.1 214.668 179.867 213.85 179.867 212.795C179.867 211.76 180.102 210.943 180.57 210.346C181.043 209.748 181.688 209.449 182.504 209.449C183.375 209.449 184.047 209.773 184.52 210.422H184.584L184.725 209.566H185.562V216.105C185.562 217.027 185.328 217.721 184.859 218.186C184.395 218.65 183.67 218.883 182.686 218.883C181.748 218.883 180.977 218.746 180.371 218.473V217.5C180.996 217.836 181.787 218.004 182.744 218.004C183.291 218.004 183.723 217.844 184.039 217.523C184.359 217.203 184.52 216.76 184.52 216.193V215.941Z" fill="black"/>
<line x1="104" y1="176" x2="154" y2="176" stroke="black" stroke-width="2"/>
<g opacity="0.7">
<path d="M176 76.5C176 89.6167 170.683 101.492 162.088 110.088C153.492 118.683 141.617 124 128.5 124C115.383 124 103.508 118.683 94.9124 110.088C86.3166 101.492 81 89.6167 81 76.5C81 63.3832 86.3166 51.5082 94.9124 42.9124C103.508 34.3166 115.383 29 128.5 29C141.617 29 153.492 34.3166 162.088 42.9124C170.683 51.5082 176 63.3832 176 76.5Z" fill="#E5E5E5"/>
<path d="M175.5 76.5C175.5 89.4788 170.24 101.228 161.734 109.734C153.228 118.24 141.479 123.5 128.5 123.5C115.521 123.5 103.772 118.24 95.266 109.734C86.7601 101.228 81.5 89.4788 81.5 76.5C81.5 63.5211 86.7601 51.7718 95.266 43.266C103.772 34.7601 115.521 29.5 128.5 29.5C141.479 29.5 153.228 34.7601 161.734 43.266C170.24 51.7718 175.5 63.5211 175.5 76.5Z" stroke="black" stroke-opacity="0.3"/>
</g>
</g>
<defs>
<filter id="filter0_d" x="0" y="0" width="258" height="258" filterUnits="userSpaceOnUse" color-interpolation-filters="sRGB">
<feFlood flood-opacity="0" result="BackgroundImageFix"/>
<feColorMatrix in="SourceAlpha" type="matrix" values="0 0 0 0 0 0 0 0 0 0 0 0 0 0 0 0 0 0 127 0"/>
<feOffset dy="4"/>
<feGaussianBlur stdDeviation="2"/>
<feColorMatrix type="matrix" values="0 0 0 0 0 0 0 0 0 0 0 0 0 0 0 0 0 0 0.25 0"/>
<feBlend mode="normal" in2="BackgroundImageFix" result="effect1_dropShadow"/>
<feBlend mode="normal" in="SourceGraphic" in2="effect1_dropShadow" result="shape"/>
</filter>
</defs>
</svg>
