<svg width="258" height="258" viewBox="0 0 258 258" fill="none" xmlns="http://www.w3.org/2000/svg">
<g filter="url(#filter0_d)">
<rect x="4" width="250" height="250" fill="#F5F5F5"/>
<path d="M80.7852 161H77.7676V154.838H72.1133V161H69.0859V146.723H72.1133V152.318H77.7676V146.723H80.7852V161ZM87.4258 153.441H88.4219C89.3529 153.441 90.0495 153.259 90.5117 152.895C90.974 152.523 91.2051 151.986 91.2051 151.283C91.2051 150.574 91.0098 150.049 90.6191 149.711C90.235 149.372 89.6296 149.203 88.8027 149.203H87.4258V153.441ZM94.2617 151.176C94.2617 152.712 93.7799 153.887 92.8164 154.701C91.8594 155.515 90.4954 155.922 88.7246 155.922H87.4258V161H84.3984V146.723H88.959C90.6908 146.723 92.0059 147.097 92.9043 147.846C93.8092 148.588 94.2617 149.698 94.2617 151.176ZM103.021 149.037C101.882 149.037 101 149.467 100.375 150.326C99.75 151.179 99.4375 152.37 99.4375 153.9C99.4375 157.084 100.632 158.676 103.021 158.676C104.024 158.676 105.238 158.425 106.664 157.924V160.463C105.492 160.951 104.184 161.195 102.738 161.195C100.661 161.195 99.0729 160.567 97.9727 159.311C96.8724 158.048 96.3223 156.238 96.3223 153.881C96.3223 152.396 96.5924 151.098 97.1328 149.984C97.6732 148.865 98.4479 148.008 99.457 147.416C100.473 146.817 101.661 146.518 103.021 146.518C104.408 146.518 105.801 146.853 107.201 147.523L106.225 149.984C105.691 149.73 105.154 149.509 104.613 149.32C104.073 149.132 103.542 149.037 103.021 149.037ZM119.105 161.195C115.707 161.195 114.008 159.33 114.008 155.6C114.008 153.744 114.47 152.328 115.395 151.352C116.319 150.368 117.644 149.877 119.369 149.877C120.632 149.877 121.765 150.124 122.768 150.619L121.889 152.924C121.42 152.735 120.984 152.582 120.58 152.465C120.176 152.341 119.773 152.279 119.369 152.279C117.82 152.279 117.045 153.38 117.045 155.58C117.045 157.715 117.82 158.783 119.369 158.783C119.942 158.783 120.473 158.708 120.961 158.559C121.449 158.402 121.938 158.161 122.426 157.836V160.385C121.944 160.691 121.456 160.902 120.961 161.02C120.473 161.137 119.854 161.195 119.105 161.195ZM127.338 155.521C127.338 156.602 127.514 157.419 127.865 157.973C128.223 158.526 128.803 158.803 129.604 158.803C130.398 158.803 130.967 158.529 131.312 157.982C131.664 157.429 131.84 156.609 131.84 155.521C131.84 154.441 131.664 153.63 131.312 153.09C130.961 152.549 130.385 152.279 129.584 152.279C128.79 152.279 128.217 152.549 127.865 153.09C127.514 153.624 127.338 154.434 127.338 155.521ZM134.887 155.521C134.887 157.299 134.418 158.689 133.48 159.691C132.543 160.694 131.238 161.195 129.564 161.195C128.516 161.195 127.592 160.967 126.791 160.512C125.99 160.049 125.375 159.389 124.945 158.529C124.516 157.67 124.301 156.667 124.301 155.521C124.301 153.738 124.766 152.351 125.697 151.361C126.628 150.372 127.937 149.877 129.623 149.877C130.671 149.877 131.596 150.105 132.396 150.561C133.197 151.016 133.812 151.671 134.242 152.523C134.672 153.376 134.887 154.376 134.887 155.521ZM145.082 161L144.682 159.604H144.525C144.206 160.111 143.754 160.505 143.168 160.785C142.582 161.059 141.915 161.195 141.166 161.195C139.883 161.195 138.917 160.854 138.266 160.17C137.615 159.48 137.289 158.49 137.289 157.201V150.082H140.268V156.459C140.268 157.247 140.408 157.839 140.688 158.236C140.967 158.627 141.413 158.822 142.025 158.822C142.859 158.822 143.461 158.546 143.832 157.992C144.203 157.432 144.389 156.508 144.389 155.219V150.082H147.367V161H145.082ZM156.586 149.877C156.99 149.877 157.325 149.906 157.592 149.965L157.367 152.758C157.126 152.693 156.833 152.66 156.488 152.66C155.538 152.66 154.796 152.904 154.262 153.393C153.734 153.881 153.471 154.564 153.471 155.443V161H150.492V150.082H152.748L153.188 151.918H153.334C153.673 151.306 154.128 150.814 154.701 150.443C155.281 150.066 155.909 149.877 156.586 149.877ZM167.191 157.758C167.191 158.878 166.801 159.73 166.02 160.316C165.245 160.902 164.083 161.195 162.533 161.195C161.739 161.195 161.062 161.14 160.502 161.029C159.942 160.925 159.418 160.769 158.93 160.561V158.1C159.483 158.36 160.105 158.578 160.795 158.754C161.492 158.93 162.104 159.018 162.631 159.018C163.712 159.018 164.252 158.705 164.252 158.08C164.252 157.846 164.18 157.657 164.037 157.514C163.894 157.364 163.646 157.198 163.295 157.016C162.943 156.827 162.475 156.609 161.889 156.361C161.049 156.01 160.43 155.684 160.033 155.385C159.643 155.085 159.356 154.743 159.174 154.359C158.998 153.969 158.91 153.49 158.91 152.924C158.91 151.954 159.285 151.205 160.033 150.678C160.788 150.144 161.856 149.877 163.236 149.877C164.551 149.877 165.831 150.163 167.074 150.736L166.176 152.885C165.629 152.65 165.118 152.458 164.643 152.309C164.167 152.159 163.682 152.084 163.188 152.084C162.309 152.084 161.869 152.322 161.869 152.797C161.869 153.064 162.009 153.295 162.289 153.49C162.576 153.686 163.197 153.975 164.154 154.359C165.007 154.704 165.632 155.027 166.029 155.326C166.426 155.626 166.719 155.971 166.908 156.361C167.097 156.752 167.191 157.217 167.191 157.758ZM174.037 151.996C173.406 151.996 172.911 152.198 172.553 152.602C172.195 152.999 171.99 153.565 171.938 154.301H176.117C176.104 153.565 175.912 152.999 175.541 152.602C175.17 152.198 174.669 151.996 174.037 151.996ZM174.457 161.195C172.699 161.195 171.326 160.71 170.336 159.74C169.346 158.77 168.852 157.396 168.852 155.619C168.852 153.79 169.307 152.377 170.219 151.381C171.137 150.378 172.403 149.877 174.018 149.877C175.561 149.877 176.762 150.316 177.621 151.195C178.48 152.074 178.91 153.288 178.91 154.838V156.283H171.869C171.902 157.13 172.152 157.79 172.621 158.266C173.09 158.741 173.747 158.979 174.594 158.979C175.251 158.979 175.873 158.91 176.459 158.773C177.045 158.637 177.657 158.419 178.295 158.119V160.424C177.774 160.684 177.217 160.876 176.625 161C176.033 161.13 175.31 161.195 174.457 161.195ZM188.949 157.758C188.949 158.878 188.559 159.73 187.777 160.316C187.003 160.902 185.84 161.195 184.291 161.195C183.497 161.195 182.82 161.14 182.26 161.029C181.7 160.925 181.176 160.769 180.688 160.561V158.1C181.241 158.36 181.863 158.578 182.553 158.754C183.249 158.93 183.861 159.018 184.389 159.018C185.469 159.018 186.01 158.705 186.01 158.08C186.01 157.846 185.938 157.657 185.795 157.514C185.652 157.364 185.404 157.198 185.053 157.016C184.701 156.827 184.232 156.609 183.646 156.361C182.807 156.01 182.188 155.684 181.791 155.385C181.4 155.085 181.114 154.743 180.932 154.359C180.756 153.969 180.668 153.49 180.668 152.924C180.668 151.954 181.042 151.205 181.791 150.678C182.546 150.144 183.614 149.877 184.994 149.877C186.309 149.877 187.589 150.163 188.832 150.736L187.934 152.885C187.387 152.65 186.876 152.458 186.4 152.309C185.925 152.159 185.44 152.084 184.945 152.084C184.066 152.084 183.627 152.322 183.627 152.797C183.627 153.064 183.767 153.295 184.047 153.49C184.333 153.686 184.955 153.975 185.912 154.359C186.765 154.704 187.39 155.027 187.787 155.326C188.184 155.626 188.477 155.971 188.666 156.361C188.855 156.752 188.949 157.217 188.949 157.758Z" fill="black"/>
<path d="M75.7207 200.117C74.7949 200.117 74.0742 199.834 73.5586 199.268C73.043 198.697 72.7852 197.881 72.7852 196.818C72.7852 195.74 73.0449 194.91 73.5645 194.328C74.0879 193.742 74.832 193.449 75.7969 193.449C76.1094 193.449 76.418 193.482 76.7227 193.549C77.0312 193.611 77.2852 193.693 77.4844 193.795L77.1621 194.674C76.6191 194.471 76.1562 194.369 75.7734 194.369C75.125 194.369 74.6465 194.574 74.3379 194.984C74.0293 195.391 73.875 195.998 73.875 196.807C73.875 197.584 74.0293 198.18 74.3379 198.594C74.6465 199.004 75.1035 199.209 75.709 199.209C76.2754 199.209 76.832 199.084 77.3789 198.834V199.771C76.9336 200.002 76.3809 200.117 75.7207 200.117ZM83.291 200V195.887C83.291 195.363 83.1738 194.975 82.9395 194.721C82.709 194.463 82.3457 194.334 81.8496 194.334C81.1973 194.334 80.7188 194.516 80.4141 194.879C80.1133 195.242 79.9629 195.842 79.9629 196.678V200H78.9082V190.883H79.9629V193.555C79.9629 193.906 79.9434 194.207 79.9043 194.457H79.9746C80.166 194.145 80.4375 193.9 80.7891 193.725C81.1406 193.549 81.5371 193.461 81.9785 193.461C82.7598 193.461 83.3477 193.648 83.7422 194.023C84.1367 194.395 84.334 194.99 84.334 195.811V200H83.291ZM89.0625 200.117C88.0977 200.117 87.3398 199.826 86.7891 199.244C86.2422 198.658 85.9688 197.854 85.9688 196.83C85.9688 195.799 86.2246 194.979 86.7363 194.369C87.248 193.756 87.9395 193.449 88.8105 193.449C89.6191 193.449 90.2637 193.711 90.7441 194.234C91.2246 194.754 91.4648 195.459 91.4648 196.35V196.988H87.0586C87.0781 197.719 87.2637 198.273 87.6152 198.652C87.9668 199.031 88.4648 199.221 89.1094 199.221C89.4531 199.221 89.7793 199.191 90.0879 199.133C90.3965 199.07 90.7578 198.951 91.1719 198.775V199.701C90.8164 199.854 90.4824 199.961 90.1699 200.023C89.8574 200.086 89.4883 200.117 89.0625 200.117ZM88.7988 194.311C88.2949 194.311 87.8965 194.473 87.6035 194.797C87.3105 195.121 87.1367 195.572 87.082 196.15H90.3574C90.3496 195.549 90.2109 195.092 89.9414 194.779C89.6719 194.467 89.291 194.311 88.7988 194.311ZM95.6777 200.117C94.752 200.117 94.0312 199.834 93.5156 199.268C93 198.697 92.7422 197.881 92.7422 196.818C92.7422 195.74 93.002 194.91 93.5215 194.328C94.0449 193.742 94.7891 193.449 95.7539 193.449C96.0664 193.449 96.375 193.482 96.6797 193.549C96.9883 193.611 97.2422 193.693 97.4414 193.795L97.1191 194.674C96.5762 194.471 96.1133 194.369 95.7305 194.369C95.082 194.369 94.6035 194.574 94.2949 194.984C93.9863 195.391 93.832 195.998 93.832 196.807C93.832 197.584 93.9863 198.18 94.2949 198.594C94.6035 199.004 95.0605 199.209 95.666 199.209C96.2324 199.209 96.7891 199.084 97.3359 198.834V199.771C96.8906 200.002 96.3379 200.117 95.6777 200.117ZM99.9082 196.689L100.266 196.232L100.676 195.74L102.732 193.566H103.963L101.361 196.314L104.145 200H102.873L100.641 197L99.9082 197.639V200H98.8652V190.883H99.9082V195.646L99.8613 196.689H99.9082ZM113.982 196.771C113.982 197.822 113.717 198.643 113.186 199.232C112.654 199.822 111.92 200.117 110.982 200.117C110.4 200.117 109.885 199.982 109.436 199.713C108.986 199.439 108.641 199.049 108.398 198.541C108.156 198.033 108.035 197.443 108.035 196.771C108.035 195.725 108.297 194.91 108.82 194.328C109.344 193.742 110.078 193.449 111.023 193.449C111.93 193.449 112.648 193.748 113.18 194.346C113.715 194.939 113.982 195.748 113.982 196.771ZM109.125 196.771C109.125 197.58 109.283 198.195 109.6 198.617C109.92 199.035 110.391 199.244 111.012 199.244C111.625 199.244 112.092 199.035 112.412 198.617C112.732 198.195 112.893 197.58 112.893 196.771C112.893 195.963 112.73 195.355 112.406 194.949C112.086 194.539 111.615 194.334 110.994 194.334C109.748 194.334 109.125 195.146 109.125 196.771ZM116.654 193.566V197.709C116.654 198.229 116.77 198.615 117 198.869C117.234 199.119 117.596 199.244 118.084 199.244C118.744 199.244 119.225 199.061 119.525 198.693C119.826 198.326 119.977 197.734 119.977 196.918V193.566H121.037V200H120.17L120.018 199.15H119.965C119.773 199.459 119.502 199.697 119.15 199.865C118.799 200.033 118.391 200.117 117.926 200.117C117.152 200.117 116.568 199.932 116.174 199.561C115.783 199.189 115.588 198.596 115.588 197.779V193.566H116.654ZM126.076 193.449C126.361 193.449 126.613 193.473 126.832 193.52L126.703 194.492C126.465 194.438 126.232 194.41 126.006 194.41C125.666 194.41 125.35 194.504 125.057 194.691C124.768 194.879 124.541 195.139 124.377 195.471C124.213 195.799 124.131 196.164 124.131 196.566V200H123.076V193.566H123.943L124.061 194.744H124.107C124.354 194.318 124.645 193.996 124.98 193.777C125.316 193.559 125.682 193.449 126.076 193.449ZM135.123 200L134.918 199.086H134.871C134.551 199.488 134.23 199.762 133.91 199.906C133.594 200.047 133.193 200.117 132.709 200.117C132.076 200.117 131.58 199.951 131.221 199.619C130.861 199.287 130.682 198.818 130.682 198.213C130.682 196.908 131.711 196.225 133.77 196.162L134.859 196.121V195.74C134.859 195.252 134.754 194.893 134.543 194.662C134.332 194.428 133.994 194.311 133.529 194.311C133.189 194.311 132.867 194.361 132.562 194.463C132.262 194.564 131.979 194.678 131.713 194.803L131.391 194.012C131.715 193.84 132.068 193.705 132.451 193.607C132.834 193.51 133.213 193.461 133.588 193.461C134.365 193.461 134.943 193.633 135.322 193.977C135.701 194.32 135.891 194.867 135.891 195.617V200H135.123ZM132.949 199.268C133.539 199.268 134.002 199.109 134.338 198.793C134.678 198.473 134.848 198.02 134.848 197.434V196.854L133.898 196.895C133.16 196.922 132.621 197.039 132.281 197.246C131.945 197.453 131.777 197.779 131.777 198.225C131.777 198.561 131.879 198.818 132.082 198.998C132.289 199.178 132.578 199.268 132.949 199.268ZM139.307 200L136.869 193.566H138L139.365 197.357C139.635 198.119 139.807 198.688 139.881 199.062H139.928C139.939 199.012 139.953 198.955 139.969 198.893C139.988 198.826 140.01 198.756 140.033 198.682C140.057 198.604 140.201 198.162 140.467 197.357L141.838 193.566H142.963L140.52 200H139.307ZM147.955 200L147.75 199.086H147.703C147.383 199.488 147.062 199.762 146.742 199.906C146.426 200.047 146.025 200.117 145.541 200.117C144.908 200.117 144.412 199.951 144.053 199.619C143.693 199.287 143.514 198.818 143.514 198.213C143.514 196.908 144.543 196.225 146.602 196.162L147.691 196.121V195.74C147.691 195.252 147.586 194.893 147.375 194.662C147.164 194.428 146.826 194.311 146.361 194.311C146.021 194.311 145.699 194.361 145.395 194.463C145.094 194.564 144.811 194.678 144.545 194.803L144.223 194.012C144.547 193.84 144.9 193.705 145.283 193.607C145.666 193.51 146.045 193.461 146.42 193.461C147.197 193.461 147.775 193.633 148.154 193.977C148.533 194.32 148.723 194.867 148.723 195.617V200H147.955ZM145.781 199.268C146.371 199.268 146.834 199.109 147.17 198.793C147.51 198.473 147.68 198.02 147.68 197.434V196.854L146.73 196.895C145.992 196.922 145.453 197.039 145.113 197.246C144.777 197.453 144.609 197.779 144.609 198.225C144.609 198.561 144.711 198.818 144.914 198.998C145.121 199.178 145.41 199.268 145.781 199.268ZM151.775 200H150.721V193.566H151.775V200ZM150.639 191.826C150.639 191.592 150.697 191.422 150.814 191.316C150.936 191.211 151.084 191.158 151.26 191.158C151.424 191.158 151.566 191.211 151.688 191.316C151.812 191.422 151.875 191.592 151.875 191.826C151.875 192.057 151.812 192.227 151.688 192.336C151.566 192.445 151.424 192.5 151.26 192.5C151.084 192.5 150.936 192.445 150.814 192.336C150.697 192.227 150.639 192.057 150.639 191.826ZM154.869 200H153.814V190.883H154.869V200ZM160.881 200L160.676 199.086H160.629C160.309 199.488 159.988 199.762 159.668 199.906C159.352 200.047 158.951 200.117 158.467 200.117C157.834 200.117 157.338 199.951 156.979 199.619C156.619 199.287 156.439 198.818 156.439 198.213C156.439 196.908 157.469 196.225 159.527 196.162L160.617 196.121V195.74C160.617 195.252 160.512 194.893 160.301 194.662C160.09 194.428 159.752 194.311 159.287 194.311C158.947 194.311 158.625 194.361 158.32 194.463C158.02 194.564 157.736 194.678 157.471 194.803L157.148 194.012C157.473 193.84 157.826 193.705 158.209 193.607C158.592 193.51 158.971 193.461 159.346 193.461C160.123 193.461 160.701 193.633 161.08 193.977C161.459 194.32 161.648 194.867 161.648 195.617V200H160.881ZM158.707 199.268C159.297 199.268 159.76 199.109 160.096 198.793C160.436 198.473 160.605 198.02 160.605 197.434V196.854L159.656 196.895C158.918 196.922 158.379 197.039 158.039 197.246C157.703 197.453 157.535 197.779 157.535 198.225C157.535 198.561 157.637 198.818 157.84 198.998C158.047 199.178 158.336 199.268 158.707 199.268ZM166.693 193.461C167.541 193.461 168.195 193.754 168.656 194.34C169.117 194.922 169.348 195.736 169.348 196.783C169.348 197.846 169.113 198.668 168.645 199.25C168.176 199.828 167.525 200.117 166.693 200.117C166.26 200.117 165.873 200.039 165.533 199.883C165.193 199.727 164.916 199.494 164.701 199.186H164.619C164.498 199.654 164.426 199.926 164.402 200H163.646V190.883H164.701V193.098C164.701 193.539 164.682 193.98 164.643 194.422H164.701C165.135 193.781 165.799 193.461 166.693 193.461ZM166.518 194.334C165.869 194.334 165.404 194.518 165.123 194.885C164.842 195.252 164.701 195.873 164.701 196.748V196.795C164.701 197.674 164.844 198.303 165.129 198.682C165.418 199.057 165.889 199.244 166.541 199.244C167.119 199.244 167.549 199.033 167.83 198.611C168.115 198.186 168.258 197.572 168.258 196.771C168.258 195.959 168.115 195.35 167.83 194.943C167.545 194.537 167.107 194.334 166.518 194.334ZM172.084 200H171.029V190.883H172.084V200ZM176.859 200.117C175.895 200.117 175.137 199.826 174.586 199.244C174.039 198.658 173.766 197.854 173.766 196.83C173.766 195.799 174.021 194.979 174.533 194.369C175.045 193.756 175.736 193.449 176.607 193.449C177.416 193.449 178.061 193.711 178.541 194.234C179.021 194.754 179.262 195.459 179.262 196.35V196.988H174.855C174.875 197.719 175.061 198.273 175.412 198.652C175.764 199.031 176.262 199.221 176.906 199.221C177.25 199.221 177.576 199.191 177.885 199.133C178.193 199.07 178.555 198.951 178.969 198.775V199.701C178.613 199.854 178.279 199.961 177.967 200.023C177.654 200.086 177.285 200.117 176.859 200.117ZM176.596 194.311C176.092 194.311 175.693 194.473 175.4 194.797C175.107 195.121 174.934 195.572 174.879 196.15H178.154C178.146 195.549 178.008 195.092 177.738 194.779C177.469 194.467 177.088 194.311 176.596 194.311ZM74.7246 216H73.6465V212.004H69.252V216H68.1738V207.434H69.252V211.055H73.6465V207.434H74.7246V216ZM82.5527 209.953C82.5527 210.828 82.2539 211.5 81.6562 211.969C81.0586 212.434 80.2168 212.666 79.1309 212.666H78.1465V216H77.0684V207.434H79.3359C81.4805 207.434 82.5527 208.273 82.5527 209.953ZM78.1465 211.74H79.0078C79.8594 211.74 80.4766 211.604 80.8594 211.33C81.2422 211.053 81.4336 210.609 81.4336 210C81.4336 209.449 81.2559 209.037 80.9004 208.764C80.5449 208.49 79.9902 208.354 79.2363 208.354H78.1465V211.74ZM88.002 208.26C87.0801 208.26 86.3555 208.568 85.8281 209.186C85.3008 209.803 85.0371 210.646 85.0371 211.717C85.0371 212.822 85.293 213.676 85.8047 214.277C86.3164 214.875 87.0449 215.174 87.9902 215.174C88.5996 215.174 89.2852 215.061 90.0469 214.834V215.771C89.6836 215.904 89.334 215.994 88.998 216.041C88.6621 216.092 88.2754 216.117 87.8379 216.117C86.5762 216.117 85.6035 215.734 84.9199 214.969C84.2402 214.199 83.9004 213.111 83.9004 211.705C83.9004 210.822 84.0625 210.049 84.3867 209.385C84.7148 208.721 85.1895 208.209 85.8105 207.85C86.4355 207.49 87.1699 207.311 88.0137 207.311C88.9199 207.311 89.709 207.479 90.3809 207.814L89.9473 208.729C89.2637 208.416 88.6152 208.26 88.002 208.26ZM97.0371 215.256C97.1738 215.256 97.334 215.242 97.5176 215.215C97.7012 215.188 97.8398 215.156 97.9336 215.121V215.93C97.8359 215.973 97.6836 216.014 97.4766 216.053C97.2734 216.096 97.0664 216.117 96.8555 216.117C95.5977 216.117 94.9688 215.455 94.9688 214.131V210.387H94.0605V209.883L94.9805 209.461L95.4023 208.09H96.0293V209.566H97.8867V210.387H96.0293V214.102C96.0293 214.473 96.1172 214.758 96.293 214.957C96.4727 215.156 96.7207 215.256 97.0371 215.256ZM102.223 209.449C102.508 209.449 102.76 209.473 102.979 209.52L102.85 210.492C102.611 210.438 102.379 210.41 102.152 210.41C101.812 210.41 101.496 210.504 101.203 210.691C100.914 210.879 100.688 211.139 100.523 211.471C100.359 211.799 100.277 212.164 100.277 212.566V216H99.2227V209.566H100.09L100.207 210.744H100.254C100.5 210.318 100.791 209.996 101.127 209.777C101.463 209.559 101.828 209.449 102.223 209.449ZM108.035 216L107.83 215.086H107.783C107.463 215.488 107.143 215.762 106.822 215.906C106.506 216.047 106.105 216.117 105.621 216.117C104.988 216.117 104.492 215.951 104.133 215.619C103.773 215.287 103.594 214.818 103.594 214.213C103.594 212.908 104.623 212.225 106.682 212.162L107.771 212.121V211.74C107.771 211.252 107.666 210.893 107.455 210.662C107.244 210.428 106.906 210.311 106.441 210.311C106.102 210.311 105.779 210.361 105.475 210.463C105.174 210.564 104.891 210.678 104.625 210.803L104.303 210.012C104.627 209.84 104.98 209.705 105.363 209.607C105.746 209.51 106.125 209.461 106.5 209.461C107.277 209.461 107.855 209.633 108.234 209.977C108.613 210.32 108.803 210.867 108.803 211.617V216H108.035ZM105.861 215.268C106.451 215.268 106.914 215.109 107.25 214.793C107.59 214.473 107.76 214.02 107.76 213.434V212.854L106.811 212.895C106.072 212.922 105.533 213.039 105.193 213.246C104.857 213.453 104.689 213.779 104.689 214.225C104.689 214.561 104.791 214.818 104.994 214.998C105.201 215.178 105.49 215.268 105.861 215.268ZM111.855 216H110.801V209.566H111.855V216ZM110.719 207.826C110.719 207.592 110.777 207.422 110.895 207.316C111.016 207.211 111.164 207.158 111.34 207.158C111.504 207.158 111.646 207.211 111.768 207.316C111.893 207.422 111.955 207.592 111.955 207.826C111.955 208.057 111.893 208.227 111.768 208.336C111.646 208.445 111.504 208.5 111.34 208.5C111.164 208.5 111.016 208.445 110.895 208.336C110.777 208.227 110.719 208.057 110.719 207.826ZM118.277 216V211.887C118.277 211.363 118.16 210.975 117.926 210.721C117.695 210.463 117.332 210.334 116.836 210.334C116.176 210.334 115.695 210.518 115.395 210.885C115.098 211.248 114.949 211.842 114.949 212.666V216H113.895V209.566H114.744L114.902 210.445H114.961C115.16 210.129 115.439 209.885 115.799 209.713C116.158 209.537 116.555 209.449 116.988 209.449C117.777 209.449 118.363 209.641 118.746 210.023C119.129 210.406 119.32 211.002 119.32 211.811V216H118.277ZM122.367 216H121.312V209.566H122.367V216ZM121.23 207.826C121.23 207.592 121.289 207.422 121.406 207.316C121.527 207.211 121.676 207.158 121.852 207.158C122.016 207.158 122.158 207.211 122.279 207.316C122.404 207.422 122.467 207.592 122.467 207.826C122.467 208.057 122.404 208.227 122.279 208.336C122.158 208.445 122.016 208.5 121.852 208.5C121.676 208.5 121.527 208.445 121.406 208.336C121.289 208.227 121.23 208.057 121.23 207.826ZM128.789 216V211.887C128.789 211.363 128.672 210.975 128.438 210.721C128.207 210.463 127.844 210.334 127.348 210.334C126.688 210.334 126.207 210.518 125.906 210.885C125.609 211.248 125.461 211.842 125.461 212.666V216H124.406V209.566H125.256L125.414 210.445H125.473C125.672 210.129 125.951 209.885 126.311 209.713C126.67 209.537 127.066 209.449 127.5 209.449C128.289 209.449 128.875 209.641 129.258 210.023C129.641 210.406 129.832 211.002 129.832 211.811V216H128.789ZM134.273 215.256C134.922 215.256 135.393 215.082 135.686 214.734C135.982 214.383 136.131 213.82 136.131 213.047V212.795C136.131 211.936 135.982 211.311 135.686 210.92C135.389 210.529 134.91 210.334 134.25 210.334C133.711 210.334 133.293 210.549 132.996 210.979C132.703 211.404 132.557 212.014 132.557 212.807C132.557 213.604 132.699 214.211 132.984 214.629C133.273 215.047 133.703 215.256 134.273 215.256ZM136.119 215.941L136.154 215.15H136.107C135.674 215.795 135.01 216.117 134.115 216.117C133.283 216.117 132.633 215.828 132.164 215.25C131.699 214.668 131.467 213.85 131.467 212.795C131.467 211.76 131.701 210.943 132.17 210.346C132.643 209.748 133.287 209.449 134.104 209.449C134.975 209.449 135.646 209.773 136.119 210.422H136.184L136.324 209.566H137.162V216.105C137.162 217.027 136.928 217.721 136.459 218.186C135.994 218.65 135.27 218.883 134.285 218.883C133.348 218.883 132.576 218.746 131.971 218.473V217.5C132.596 217.836 133.387 218.004 134.344 218.004C134.891 218.004 135.322 217.844 135.639 217.523C135.959 217.203 136.119 216.76 136.119 216.193V215.941ZM144.902 216.117C143.977 216.117 143.256 215.834 142.74 215.268C142.225 214.697 141.967 213.881 141.967 212.818C141.967 211.74 142.227 210.91 142.746 210.328C143.27 209.742 144.014 209.449 144.979 209.449C145.291 209.449 145.6 209.482 145.904 209.549C146.213 209.611 146.467 209.693 146.666 209.795L146.344 210.674C145.801 210.471 145.338 210.369 144.955 210.369C144.307 210.369 143.828 210.574 143.52 210.984C143.211 211.391 143.057 211.998 143.057 212.807C143.057 213.584 143.211 214.18 143.52 214.594C143.828 215.004 144.285 215.209 144.891 215.209C145.457 215.209 146.014 215.084 146.561 214.834V215.771C146.115 216.002 145.562 216.117 144.902 216.117ZM153.68 212.771C153.68 213.822 153.414 214.643 152.883 215.232C152.352 215.822 151.617 216.117 150.68 216.117C150.098 216.117 149.582 215.982 149.133 215.713C148.684 215.439 148.338 215.049 148.096 214.541C147.854 214.033 147.732 213.443 147.732 212.771C147.732 211.725 147.994 210.91 148.518 210.328C149.041 209.742 149.775 209.449 150.721 209.449C151.627 209.449 152.346 209.748 152.877 210.346C153.412 210.939 153.68 211.748 153.68 212.771ZM148.822 212.771C148.822 213.58 148.98 214.195 149.297 214.617C149.617 215.035 150.088 215.244 150.709 215.244C151.322 215.244 151.789 215.035 152.109 214.617C152.43 214.195 152.59 213.58 152.59 212.771C152.59 211.963 152.428 211.355 152.104 210.949C151.783 210.539 151.312 210.334 150.691 210.334C149.445 210.334 148.822 211.146 148.822 212.771ZM156.352 209.566V213.709C156.352 214.229 156.467 214.615 156.697 214.869C156.932 215.119 157.293 215.244 157.781 215.244C158.441 215.244 158.922 215.061 159.223 214.693C159.523 214.326 159.674 213.734 159.674 212.918V209.566H160.734V216H159.867L159.715 215.15H159.662C159.471 215.459 159.199 215.697 158.848 215.865C158.496 216.033 158.088 216.117 157.623 216.117C156.85 216.117 156.266 215.932 155.871 215.561C155.48 215.189 155.285 214.596 155.285 213.779V209.566H156.352ZM165.773 209.449C166.059 209.449 166.311 209.473 166.529 209.52L166.4 210.492C166.162 210.438 165.93 210.41 165.703 210.41C165.363 210.41 165.047 210.504 164.754 210.691C164.465 210.879 164.238 211.139 164.074 211.471C163.91 211.799 163.828 212.164 163.828 212.566V216H162.773V209.566H163.641L163.758 210.744H163.805C164.051 210.318 164.342 209.996 164.678 209.777C165.014 209.559 165.379 209.449 165.773 209.449ZM171.92 214.225C171.92 214.826 171.695 215.293 171.246 215.625C170.797 215.953 170.166 216.117 169.354 216.117C168.506 216.117 167.832 215.982 167.332 215.713V214.752C168.039 215.096 168.721 215.268 169.377 215.268C169.908 215.268 170.295 215.182 170.537 215.01C170.779 214.838 170.9 214.607 170.9 214.318C170.9 214.064 170.783 213.85 170.549 213.674C170.318 213.498 169.906 213.297 169.312 213.07C168.707 212.836 168.281 212.637 168.035 212.473C167.789 212.305 167.607 212.117 167.49 211.91C167.377 211.703 167.32 211.451 167.32 211.154C167.32 210.627 167.535 210.211 167.965 209.906C168.395 209.602 168.984 209.449 169.734 209.449C170.465 209.449 171.148 209.594 171.785 209.883L171.428 210.721C170.775 210.447 170.188 210.311 169.664 210.311C169.227 210.311 168.895 210.381 168.668 210.521C168.441 210.658 168.328 210.848 168.328 211.09C168.328 211.324 168.426 211.52 168.621 211.676C168.816 211.828 169.271 212.041 169.986 212.314C170.521 212.514 170.916 212.699 171.17 212.871C171.428 213.043 171.617 213.236 171.738 213.451C171.859 213.666 171.92 213.924 171.92 214.225ZM176.221 216.117C175.256 216.117 174.498 215.826 173.947 215.244C173.4 214.658 173.127 213.854 173.127 212.83C173.127 211.799 173.383 210.979 173.895 210.369C174.406 209.756 175.098 209.449 175.969 209.449C176.777 209.449 177.422 209.711 177.902 210.234C178.383 210.754 178.623 211.459 178.623 212.35V212.988H174.217C174.236 213.719 174.422 214.273 174.773 214.652C175.125 215.031 175.623 215.221 176.268 215.221C176.611 215.221 176.938 215.191 177.246 215.133C177.555 215.07 177.916 214.951 178.33 214.775V215.701C177.975 215.854 177.641 215.961 177.328 216.023C177.016 216.086 176.646 216.117 176.221 216.117ZM175.957 210.311C175.453 210.311 175.055 210.473 174.762 210.797C174.469 211.121 174.295 211.572 174.24 212.15H177.516C177.508 211.549 177.369 211.092 177.1 210.779C176.83 210.467 176.449 210.311 175.957 210.311ZM184.447 214.225C184.447 214.826 184.223 215.293 183.773 215.625C183.324 215.953 182.693 216.117 181.881 216.117C181.033 216.117 180.359 215.982 179.859 215.713V214.752C180.566 215.096 181.248 215.268 181.904 215.268C182.436 215.268 182.822 215.182 183.064 215.01C183.307 214.838 183.428 214.607 183.428 214.318C183.428 214.064 183.311 213.85 183.076 213.674C182.846 213.498 182.434 213.297 181.84 213.07C181.234 212.836 180.809 212.637 180.562 212.473C180.316 212.305 180.135 212.117 180.018 211.91C179.904 211.703 179.848 211.451 179.848 211.154C179.848 210.627 180.062 210.211 180.492 209.906C180.922 209.602 181.512 209.449 182.262 209.449C182.992 209.449 183.676 209.594 184.312 209.883L183.955 210.721C183.303 210.447 182.715 210.311 182.191 210.311C181.754 210.311 181.422 210.381 181.195 210.521C180.969 210.658 180.855 210.848 180.855 211.09C180.855 211.324 180.953 211.52 181.148 211.676C181.344 211.828 181.799 212.041 182.514 212.314C183.049 212.514 183.443 212.699 183.697 212.871C183.955 213.043 184.145 213.236 184.266 213.451C184.387 213.666 184.447 213.924 184.447 214.225Z" fill="black"/>
<line x1="104" y1="176" x2="154" y2="176" stroke="black" stroke-width="2"/>
<g opacity="0.7">
<path d="M176 76.5C176 89.6167 170.683 101.492 162.088 110.088C153.492 118.683 141.617 124 128.5 124C115.383 124 103.508 118.683 94.9124 110.088C86.3166 101.492 81 89.6167 81 76.5C81 63.3832 86.3166 51.5082 94.9124 42.9124C103.508 34.3166 115.383 29 128.5 29C141.617 29 153.492 34.3166 162.088 42.9124C170.683 51.5082 176 63.3832 176 76.5Z" fill="#E5E5E5"/>
<path d="M175.5 76.5C175.5 89.4788 170.24 101.228 161.734 109.734C153.228 118.24 141.479 123.5 128.5 123.5C115.521 123.5 103.772 118.24 95.266 109.734C86.7601 101.228 81.5 89.4788 81.5 76.5C81.5 63.5211 86.7601 51.7718 95.266 43.266C103.772 34.7601 115.521 29.5 128.5 29.5C141.479 29.5 153.228 34.7601 161.734 43.266C170.24 51.7718 175.5 63.5211 175.5 76.5Z" stroke="black" stroke-opacity="0.3"/>
</g>
</g>
<defs>
<filter id="filter0_d" x="0" y="0" width="258" height="258" filterUnits="userSpaceOnUse" color-interpolation-filters="sRGB">
<feFlood flood-opacity="0" result="BackgroundImageFix"/>
<feColorMatrix in="SourceAlpha" type="matrix" values="0 0 0 0 0 0 0 0 0 0 0 0 0 0 0 0 0 0 127 0"/>
<feOffset dy="4"/>
<feGaussianBlur stdDeviation="2"/>
<feColorMatrix type="matrix" values="0 0 0 0 0 0 0 0 0 0 0 0 0 0 0 0 0 0 0.25 0"/>
<feBlend mode="normal" in2="BackgroundImageFix" result="effect1_dropShadow"/>
<feBlend mode="normal" in="SourceGraphic" in2="effect1_dropShadow" result="shape"/>
</filter>
</defs>
</svg>
