<svg width="258" height="258" viewBox="0 0 258 258" fill="none" xmlns="http://www.w3.org/2000/svg">
<g filter="url(#filter0_d)">
<rect x="4" width="250" height="250" fill="#F5F5F5"/>
<path d="M98.9297 161H95.9121V154.838H90.2578V161H87.2305V146.723H90.2578V152.318H95.9121V146.723H98.9297V161ZM105.57 153.441H106.566C107.497 153.441 108.194 153.259 108.656 152.895C109.118 152.523 109.35 151.986 109.35 151.283C109.35 150.574 109.154 150.049 108.764 149.711C108.38 149.372 107.774 149.203 106.947 149.203H105.57V153.441ZM112.406 151.176C112.406 152.712 111.924 153.887 110.961 154.701C110.004 155.515 108.64 155.922 106.869 155.922H105.57V161H102.543V146.723H107.104C108.835 146.723 110.15 147.097 111.049 147.846C111.954 148.588 112.406 149.698 112.406 151.176ZM121.166 149.037C120.027 149.037 119.145 149.467 118.52 150.326C117.895 151.179 117.582 152.37 117.582 153.9C117.582 157.084 118.777 158.676 121.166 158.676C122.169 158.676 123.383 158.425 124.809 157.924V160.463C123.637 160.951 122.328 161.195 120.883 161.195C118.806 161.195 117.217 160.567 116.117 159.311C115.017 158.048 114.467 156.238 114.467 153.881C114.467 152.396 114.737 151.098 115.277 149.984C115.818 148.865 116.592 148.008 117.602 147.416C118.617 146.817 119.805 146.518 121.166 146.518C122.553 146.518 123.946 146.853 125.346 147.523L124.369 149.984C123.835 149.73 123.298 149.509 122.758 149.32C122.217 149.132 121.687 149.037 121.166 149.037ZM136.029 161H133.051V146.723H141.234V149.203H136.029V152.885H140.873V155.355H136.029V161ZM152.572 161L151.537 157.602H146.332L145.297 161H142.035L147.074 146.664H150.775L155.834 161H152.572ZM150.814 155.062C149.857 151.983 149.317 150.242 149.193 149.838C149.076 149.434 148.992 149.115 148.939 148.881C148.725 149.714 148.109 151.775 147.094 155.062H150.814ZM170.404 153.842C170.404 155.521 170.105 156.931 169.506 158.07C168.913 159.203 168.041 160.033 166.889 160.561L170.326 164.398H166.449L163.832 161.195H163.607C161.42 161.195 159.74 160.561 158.568 159.291C157.396 158.021 156.811 156.199 156.811 153.822C156.811 151.446 157.396 149.633 158.568 148.383C159.747 147.126 161.433 146.498 163.627 146.498C165.821 146.498 167.497 147.13 168.656 148.393C169.822 149.656 170.404 151.472 170.404 153.842ZM159.984 153.842C159.984 155.437 160.287 156.638 160.893 157.445C161.498 158.253 162.403 158.656 163.607 158.656C166.023 158.656 167.23 157.051 167.23 153.842C167.23 150.626 166.029 149.018 163.627 149.018C162.423 149.018 161.514 149.424 160.902 150.238C160.29 151.046 159.984 152.247 159.984 153.842Z" fill="black"/>
<path d="M113.064 198.225C113.064 198.826 112.84 199.293 112.391 199.625C111.941 199.953 111.311 200.117 110.498 200.117C109.65 200.117 108.977 199.982 108.477 199.713V198.752C109.184 199.096 109.865 199.268 110.521 199.268C111.053 199.268 111.439 199.182 111.682 199.01C111.924 198.838 112.045 198.607 112.045 198.318C112.045 198.064 111.928 197.85 111.693 197.674C111.463 197.498 111.051 197.297 110.457 197.07C109.852 196.836 109.426 196.637 109.18 196.473C108.934 196.305 108.752 196.117 108.635 195.91C108.521 195.703 108.465 195.451 108.465 195.154C108.465 194.627 108.68 194.211 109.109 193.906C109.539 193.602 110.129 193.449 110.879 193.449C111.609 193.449 112.293 193.594 112.93 193.883L112.572 194.721C111.92 194.447 111.332 194.311 110.809 194.311C110.371 194.311 110.039 194.381 109.812 194.521C109.586 194.658 109.473 194.848 109.473 195.09C109.473 195.324 109.57 195.52 109.766 195.676C109.961 195.828 110.416 196.041 111.131 196.314C111.666 196.514 112.061 196.699 112.314 196.871C112.572 197.043 112.762 197.236 112.883 197.451C113.004 197.666 113.064 197.924 113.064 198.225ZM117.365 200.117C116.4 200.117 115.643 199.826 115.092 199.244C114.545 198.658 114.271 197.854 114.271 196.83C114.271 195.799 114.527 194.979 115.039 194.369C115.551 193.756 116.242 193.449 117.113 193.449C117.922 193.449 118.566 193.711 119.047 194.234C119.527 194.754 119.768 195.459 119.768 196.35V196.988H115.361C115.381 197.719 115.566 198.273 115.918 198.652C116.27 199.031 116.768 199.221 117.412 199.221C117.756 199.221 118.082 199.191 118.391 199.133C118.699 199.07 119.061 198.951 119.475 198.775V199.701C119.119 199.854 118.785 199.961 118.473 200.023C118.16 200.086 117.791 200.117 117.365 200.117ZM117.102 194.311C116.598 194.311 116.199 194.473 115.906 194.797C115.613 195.121 115.439 195.572 115.385 196.15H118.66C118.652 195.549 118.514 195.092 118.244 194.779C117.975 194.467 117.594 194.311 117.102 194.311ZM125.375 200L125.17 199.086H125.123C124.803 199.488 124.482 199.762 124.162 199.906C123.846 200.047 123.445 200.117 122.961 200.117C122.328 200.117 121.832 199.951 121.473 199.619C121.113 199.287 120.934 198.818 120.934 198.213C120.934 196.908 121.963 196.225 124.021 196.162L125.111 196.121V195.74C125.111 195.252 125.006 194.893 124.795 194.662C124.584 194.428 124.246 194.311 123.781 194.311C123.441 194.311 123.119 194.361 122.814 194.463C122.514 194.564 122.23 194.678 121.965 194.803L121.643 194.012C121.967 193.84 122.32 193.705 122.703 193.607C123.086 193.51 123.465 193.461 123.84 193.461C124.617 193.461 125.195 193.633 125.574 193.977C125.953 194.32 126.143 194.867 126.143 195.617V200H125.375ZM123.201 199.268C123.791 199.268 124.254 199.109 124.59 198.793C124.93 198.473 125.1 198.02 125.1 197.434V196.854L124.15 196.895C123.412 196.922 122.873 197.039 122.533 197.246C122.197 197.453 122.029 197.779 122.029 198.225C122.029 198.561 122.131 198.818 122.334 198.998C122.541 199.178 122.83 199.268 123.201 199.268ZM131.141 193.449C131.426 193.449 131.678 193.473 131.896 193.52L131.768 194.492C131.529 194.438 131.297 194.41 131.07 194.41C130.73 194.41 130.414 194.504 130.121 194.691C129.832 194.879 129.605 195.139 129.441 195.471C129.277 195.799 129.195 196.164 129.195 196.566V200H128.141V193.566H129.008L129.125 194.744H129.172C129.418 194.318 129.709 193.996 130.045 193.777C130.381 193.559 130.746 193.449 131.141 193.449ZM135.559 200.117C134.633 200.117 133.912 199.834 133.396 199.268C132.881 198.697 132.623 197.881 132.623 196.818C132.623 195.74 132.883 194.91 133.402 194.328C133.926 193.742 134.67 193.449 135.635 193.449C135.947 193.449 136.256 193.482 136.561 193.549C136.869 193.611 137.123 193.693 137.322 193.795L137 194.674C136.457 194.471 135.994 194.369 135.611 194.369C134.963 194.369 134.484 194.574 134.176 194.984C133.867 195.391 133.713 195.998 133.713 196.807C133.713 197.584 133.867 198.18 134.176 198.594C134.484 199.004 134.941 199.209 135.547 199.209C136.113 199.209 136.67 199.084 137.217 198.834V199.771C136.771 200.002 136.219 200.117 135.559 200.117ZM143.129 200V195.887C143.129 195.363 143.012 194.975 142.777 194.721C142.547 194.463 142.184 194.334 141.688 194.334C141.035 194.334 140.557 194.516 140.252 194.879C139.951 195.242 139.801 195.842 139.801 196.678V200H138.746V190.883H139.801V193.555C139.801 193.906 139.781 194.207 139.742 194.457H139.812C140.004 194.145 140.275 193.9 140.627 193.725C140.979 193.549 141.375 193.461 141.816 193.461C142.598 193.461 143.186 193.648 143.58 194.023C143.975 194.395 144.172 194.99 144.172 195.811V200H143.129ZM53.0586 210.387H51.4355V216H50.3809V210.387H49.2559V209.895L50.3809 209.531V209.162C50.3809 208.381 50.5508 207.795 50.8906 207.404C51.2344 207.014 51.7617 206.818 52.4727 206.818C52.8828 206.818 53.2988 206.891 53.7207 207.035L53.4395 207.861C53.0762 207.744 52.7578 207.686 52.4844 207.686C52.1289 207.686 51.8652 207.803 51.6934 208.037C51.5215 208.271 51.4355 208.643 51.4355 209.15V209.566H53.0586V210.387ZM57.2305 209.449C57.5156 209.449 57.7676 209.473 57.9863 209.52L57.8574 210.492C57.6191 210.438 57.3867 210.41 57.1602 210.41C56.8203 210.41 56.5039 210.504 56.2109 210.691C55.9219 210.879 55.6953 211.139 55.5312 211.471C55.3672 211.799 55.2852 212.164 55.2852 212.566V216H54.2305V209.566H55.0977L55.2148 210.744H55.2617C55.5078 210.318 55.7988 209.996 56.1348 209.777C56.4707 209.559 56.8359 209.449 57.2305 209.449ZM61.8066 216.117C60.8418 216.117 60.084 215.826 59.5332 215.244C58.9863 214.658 58.7129 213.854 58.7129 212.83C58.7129 211.799 58.9688 210.979 59.4805 210.369C59.9922 209.756 60.6836 209.449 61.5547 209.449C62.3633 209.449 63.0078 209.711 63.4883 210.234C63.9688 210.754 64.209 211.459 64.209 212.35V212.988H59.8027C59.8223 213.719 60.0078 214.273 60.3594 214.652C60.7109 215.031 61.209 215.221 61.8535 215.221C62.1973 215.221 62.5234 215.191 62.832 215.133C63.1406 215.07 63.502 214.951 63.916 214.775V215.701C63.5605 215.854 63.2266 215.961 62.9141 216.023C62.6016 216.086 62.2324 216.117 61.8066 216.117ZM61.543 210.311C61.0391 210.311 60.6406 210.473 60.3477 210.797C60.0547 211.121 59.8809 211.572 59.8262 212.15H63.1016C63.0938 211.549 62.9551 211.092 62.6855 210.779C62.416 210.467 62.0352 210.311 61.543 210.311ZM68.3047 215.244C68.9336 215.244 69.3926 215.072 69.6816 214.729C69.9707 214.385 70.123 213.816 70.1387 213.023V212.807C70.1387 211.92 69.9902 211.285 69.6934 210.902C69.3965 210.516 68.9258 210.322 68.2812 210.322C67.7305 210.322 67.3086 210.539 67.0156 210.973C66.7227 211.406 66.5762 212.021 66.5762 212.818C66.5762 213.604 66.7207 214.205 67.0098 214.623C67.3027 215.037 67.7344 215.244 68.3047 215.244ZM68.0996 216.117C67.2715 216.117 66.6289 215.824 66.1719 215.238C65.7148 214.652 65.4863 213.838 65.4863 212.795C65.4863 211.748 65.7188 210.93 66.1836 210.34C66.6523 209.746 67.3027 209.449 68.1348 209.449C69.0137 209.449 69.6816 209.781 70.1387 210.445H70.1855L70.3438 209.566H71.1816V218.883H70.127V216.135C70.127 215.705 70.1465 215.373 70.1855 215.139H70.1152C69.666 215.791 68.9941 216.117 68.0996 216.117ZM74.2227 209.566V213.709C74.2227 214.229 74.3379 214.615 74.5684 214.869C74.8027 215.119 75.1641 215.244 75.6523 215.244C76.3125 215.244 76.793 215.061 77.0938 214.693C77.3945 214.326 77.5449 213.734 77.5449 212.918V209.566H78.6055V216H77.7383L77.5859 215.15H77.5332C77.3418 215.459 77.0703 215.697 76.7188 215.865C76.3672 216.033 75.959 216.117 75.4941 216.117C74.7207 216.117 74.1367 215.932 73.7422 215.561C73.3516 215.189 73.1562 214.596 73.1562 213.779V209.566H74.2227ZM83.3809 216.117C82.416 216.117 81.6582 215.826 81.1074 215.244C80.5605 214.658 80.2871 213.854 80.2871 212.83C80.2871 211.799 80.543 210.979 81.0547 210.369C81.5664 209.756 82.2578 209.449 83.1289 209.449C83.9375 209.449 84.582 209.711 85.0625 210.234C85.543 210.754 85.7832 211.459 85.7832 212.35V212.988H81.377C81.3965 213.719 81.582 214.273 81.9336 214.652C82.2852 215.031 82.7832 215.221 83.4277 215.221C83.7715 215.221 84.0977 215.191 84.4062 215.133C84.7148 215.07 85.0762 214.951 85.4902 214.775V215.701C85.1348 215.854 84.8008 215.961 84.4883 216.023C84.1758 216.086 83.8066 216.117 83.3809 216.117ZM83.1172 210.311C82.6133 210.311 82.2148 210.473 81.9219 210.797C81.6289 211.121 81.4551 211.572 81.4004 212.15H84.6758C84.668 211.549 84.5293 211.092 84.2598 210.779C83.9902 210.467 83.6094 210.311 83.1172 210.311ZM91.8008 216V211.887C91.8008 211.363 91.6836 210.975 91.4492 210.721C91.2188 210.463 90.8555 210.334 90.3594 210.334C89.6992 210.334 89.2188 210.518 88.918 210.885C88.6211 211.248 88.4727 211.842 88.4727 212.666V216H87.418V209.566H88.2676L88.4258 210.445H88.4844C88.6836 210.129 88.9629 209.885 89.3223 209.713C89.6816 209.537 90.0781 209.449 90.5117 209.449C91.3008 209.449 91.8867 209.641 92.2695 210.023C92.6523 210.406 92.8438 211.002 92.8438 211.811V216H91.8008ZM97.4141 216.117C96.4883 216.117 95.7676 215.834 95.252 215.268C94.7363 214.697 94.4785 213.881 94.4785 212.818C94.4785 211.74 94.7383 210.91 95.2578 210.328C95.7812 209.742 96.5254 209.449 97.4902 209.449C97.8027 209.449 98.1113 209.482 98.416 209.549C98.7246 209.611 98.9785 209.693 99.1777 209.795L98.8555 210.674C98.3125 210.471 97.8496 210.369 97.4668 210.369C96.8184 210.369 96.3398 210.574 96.0312 210.984C95.7227 211.391 95.5684 211.998 95.5684 212.807C95.5684 213.584 95.7227 214.18 96.0312 214.594C96.3398 215.004 96.7969 215.209 97.4023 215.209C97.9688 215.209 98.5254 215.084 99.0723 214.834V215.771C98.627 216.002 98.0742 216.117 97.4141 216.117ZM99.5938 209.566H100.725L102.113 213.229C102.406 214.025 102.586 214.609 102.652 214.98H102.699C102.734 214.836 102.814 214.566 102.939 214.172C103.064 213.773 103.17 213.455 103.256 213.217L104.562 209.566H105.699L102.928 216.891C102.658 217.602 102.338 218.111 101.967 218.42C101.596 218.729 101.137 218.883 100.59 218.883C100.297 218.883 100.006 218.85 99.7168 218.783V217.945C99.9121 217.992 100.146 218.016 100.42 218.016C100.756 218.016 101.041 217.922 101.275 217.734C101.51 217.551 101.701 217.266 101.85 216.879L102.184 216.023L99.5938 209.566ZM113.809 216L113.604 215.086H113.557C113.236 215.488 112.916 215.762 112.596 215.906C112.279 216.047 111.879 216.117 111.395 216.117C110.762 216.117 110.266 215.951 109.906 215.619C109.547 215.287 109.367 214.818 109.367 214.213C109.367 212.908 110.396 212.225 112.455 212.162L113.545 212.121V211.74C113.545 211.252 113.439 210.893 113.229 210.662C113.018 210.428 112.68 210.311 112.215 210.311C111.875 210.311 111.553 210.361 111.248 210.463C110.947 210.564 110.664 210.678 110.398 210.803L110.076 210.012C110.4 209.84 110.754 209.705 111.137 209.607C111.52 209.51 111.898 209.461 112.273 209.461C113.051 209.461 113.629 209.633 114.008 209.977C114.387 210.32 114.576 210.867 114.576 211.617V216H113.809ZM111.635 215.268C112.225 215.268 112.688 215.109 113.023 214.793C113.363 214.473 113.533 214.02 113.533 213.434V212.854L112.584 212.895C111.846 212.922 111.307 213.039 110.967 213.246C110.631 213.453 110.463 213.779 110.463 214.225C110.463 214.561 110.564 214.818 110.768 214.998C110.975 215.178 111.264 215.268 111.635 215.268ZM120.764 214.225C120.764 214.826 120.539 215.293 120.09 215.625C119.641 215.953 119.01 216.117 118.197 216.117C117.35 216.117 116.676 215.982 116.176 215.713V214.752C116.883 215.096 117.564 215.268 118.221 215.268C118.752 215.268 119.139 215.182 119.381 215.01C119.623 214.838 119.744 214.607 119.744 214.318C119.744 214.064 119.627 213.85 119.393 213.674C119.162 213.498 118.75 213.297 118.156 213.07C117.551 212.836 117.125 212.637 116.879 212.473C116.633 212.305 116.451 212.117 116.334 211.91C116.221 211.703 116.164 211.451 116.164 211.154C116.164 210.627 116.379 210.211 116.809 209.906C117.238 209.602 117.828 209.449 118.578 209.449C119.309 209.449 119.992 209.594 120.629 209.883L120.271 210.721C119.619 210.447 119.031 210.311 118.508 210.311C118.07 210.311 117.738 210.381 117.512 210.521C117.285 210.658 117.172 210.848 117.172 211.09C117.172 211.324 117.27 211.52 117.465 211.676C117.66 211.828 118.115 212.041 118.83 212.314C119.365 212.514 119.76 212.699 120.014 212.871C120.271 213.043 120.461 213.236 120.582 213.451C120.703 213.666 120.764 213.924 120.764 214.225ZM123.371 212.689L123.729 212.232L124.139 211.74L126.195 209.566H127.426L124.824 212.314L127.607 216H126.336L124.104 213L123.371 213.639V216H122.328V206.883H123.371V211.646L123.324 212.689H123.371ZM129.793 216H128.738V209.566H129.793V216ZM128.656 207.826C128.656 207.592 128.715 207.422 128.832 207.316C128.953 207.211 129.102 207.158 129.277 207.158C129.441 207.158 129.584 207.211 129.705 207.316C129.83 207.422 129.893 207.592 129.893 207.826C129.893 208.057 129.83 208.227 129.705 208.336C129.584 208.445 129.441 208.5 129.277 208.5C129.102 208.5 128.953 208.445 128.832 208.336C128.715 208.227 128.656 208.057 128.656 207.826ZM136.215 216V211.887C136.215 211.363 136.098 210.975 135.863 210.721C135.633 210.463 135.27 210.334 134.773 210.334C134.113 210.334 133.633 210.518 133.332 210.885C133.035 211.248 132.887 211.842 132.887 212.666V216H131.832V209.566H132.682L132.84 210.445H132.898C133.098 210.129 133.377 209.885 133.736 209.713C134.096 209.537 134.492 209.449 134.926 209.449C135.715 209.449 136.301 209.641 136.684 210.023C137.066 210.406 137.258 211.002 137.258 211.811V216H136.215ZM141.699 215.256C142.348 215.256 142.818 215.082 143.111 214.734C143.408 214.383 143.557 213.82 143.557 213.047V212.795C143.557 211.936 143.408 211.311 143.111 210.92C142.814 210.529 142.336 210.334 141.676 210.334C141.137 210.334 140.719 210.549 140.422 210.979C140.129 211.404 139.982 212.014 139.982 212.807C139.982 213.604 140.125 214.211 140.41 214.629C140.699 215.047 141.129 215.256 141.699 215.256ZM143.545 215.941L143.58 215.15H143.533C143.1 215.795 142.436 216.117 141.541 216.117C140.709 216.117 140.059 215.828 139.59 215.25C139.125 214.668 138.893 213.85 138.893 212.795C138.893 211.76 139.127 210.943 139.596 210.346C140.068 209.748 140.713 209.449 141.529 209.449C142.4 209.449 143.072 209.773 143.545 210.422H143.609L143.75 209.566H144.588V216.105C144.588 217.027 144.354 217.721 143.885 218.186C143.42 218.65 142.695 218.883 141.711 218.883C140.773 218.883 140.002 218.746 139.396 218.473V217.5C140.021 217.836 140.812 218.004 141.77 218.004C142.316 218.004 142.748 217.844 143.064 217.523C143.385 217.203 143.545 216.76 143.545 216.193V215.941ZM152.211 215.244C152.84 215.244 153.299 215.072 153.588 214.729C153.877 214.385 154.029 213.816 154.045 213.023V212.807C154.045 211.92 153.896 211.285 153.6 210.902C153.303 210.516 152.832 210.322 152.188 210.322C151.637 210.322 151.215 210.539 150.922 210.973C150.629 211.406 150.482 212.021 150.482 212.818C150.482 213.604 150.627 214.205 150.916 214.623C151.209 215.037 151.641 215.244 152.211 215.244ZM152.006 216.117C151.178 216.117 150.535 215.824 150.078 215.238C149.621 214.652 149.393 213.838 149.393 212.795C149.393 211.748 149.625 210.93 150.09 210.34C150.559 209.746 151.209 209.449 152.041 209.449C152.92 209.449 153.588 209.781 154.045 210.445H154.092L154.25 209.566H155.088V218.883H154.033V216.135C154.033 215.705 154.053 215.373 154.092 215.139H154.021C153.572 215.791 152.9 216.117 152.006 216.117ZM158.129 209.566V213.709C158.129 214.229 158.244 214.615 158.475 214.869C158.709 215.119 159.07 215.244 159.559 215.244C160.219 215.244 160.699 215.061 161 214.693C161.301 214.326 161.451 213.734 161.451 212.918V209.566H162.512V216H161.645L161.492 215.15H161.439C161.248 215.459 160.977 215.697 160.625 215.865C160.273 216.033 159.865 216.117 159.4 216.117C158.627 216.117 158.043 215.932 157.648 215.561C157.258 215.189 157.062 214.596 157.062 213.779V209.566H158.129ZM167.287 216.117C166.322 216.117 165.564 215.826 165.014 215.244C164.467 214.658 164.193 213.854 164.193 212.83C164.193 211.799 164.449 210.979 164.961 210.369C165.473 209.756 166.164 209.449 167.035 209.449C167.844 209.449 168.488 209.711 168.969 210.234C169.449 210.754 169.689 211.459 169.689 212.35V212.988H165.283C165.303 213.719 165.488 214.273 165.84 214.652C166.191 215.031 166.689 215.221 167.334 215.221C167.678 215.221 168.004 215.191 168.312 215.133C168.621 215.07 168.982 214.951 169.396 214.775V215.701C169.041 215.854 168.707 215.961 168.395 216.023C168.082 216.086 167.713 216.117 167.287 216.117ZM167.023 210.311C166.52 210.311 166.121 210.473 165.828 210.797C165.535 211.121 165.361 211.572 165.307 212.15H168.582C168.574 211.549 168.436 211.092 168.166 210.779C167.896 210.467 167.516 210.311 167.023 210.311ZM175.514 214.225C175.514 214.826 175.289 215.293 174.84 215.625C174.391 215.953 173.76 216.117 172.947 216.117C172.1 216.117 171.426 215.982 170.926 215.713V214.752C171.633 215.096 172.314 215.268 172.971 215.268C173.502 215.268 173.889 215.182 174.131 215.01C174.373 214.838 174.494 214.607 174.494 214.318C174.494 214.064 174.377 213.85 174.143 213.674C173.912 213.498 173.5 213.297 172.906 213.07C172.301 212.836 171.875 212.637 171.629 212.473C171.383 212.305 171.201 212.117 171.084 211.91C170.971 211.703 170.914 211.451 170.914 211.154C170.914 210.627 171.129 210.211 171.559 209.906C171.988 209.602 172.578 209.449 173.328 209.449C174.059 209.449 174.742 209.594 175.379 209.883L175.021 210.721C174.369 210.447 173.781 210.311 173.258 210.311C172.82 210.311 172.488 210.381 172.262 210.521C172.035 210.658 171.922 210.848 171.922 211.09C171.922 211.324 172.02 211.52 172.215 211.676C172.41 211.828 172.865 212.041 173.58 212.314C174.115 212.514 174.51 212.699 174.764 212.871C175.021 213.043 175.211 213.236 175.332 213.451C175.453 213.666 175.514 213.924 175.514 214.225ZM179.229 215.256C179.365 215.256 179.525 215.242 179.709 215.215C179.893 215.188 180.031 215.156 180.125 215.121V215.93C180.027 215.973 179.875 216.014 179.668 216.053C179.465 216.096 179.258 216.117 179.047 216.117C177.789 216.117 177.16 215.455 177.16 214.131V210.387H176.252V209.883L177.172 209.461L177.594 208.09H178.221V209.566H180.078V210.387H178.221V214.102C178.221 214.473 178.309 214.758 178.484 214.957C178.664 215.156 178.912 215.256 179.229 215.256ZM182.469 216H181.414V209.566H182.469V216ZM181.332 207.826C181.332 207.592 181.391 207.422 181.508 207.316C181.629 207.211 181.777 207.158 181.953 207.158C182.117 207.158 182.26 207.211 182.381 207.316C182.506 207.422 182.568 207.592 182.568 207.826C182.568 208.057 182.506 208.227 182.381 208.336C182.26 208.445 182.117 208.5 181.953 208.5C181.777 208.5 181.629 208.445 181.508 208.336C181.391 208.227 181.332 208.057 181.332 207.826ZM190.098 212.771C190.098 213.822 189.832 214.643 189.301 215.232C188.77 215.822 188.035 216.117 187.098 216.117C186.516 216.117 186 215.982 185.551 215.713C185.102 215.439 184.756 215.049 184.514 214.541C184.271 214.033 184.15 213.443 184.15 212.771C184.15 211.725 184.412 210.91 184.936 210.328C185.459 209.742 186.193 209.449 187.139 209.449C188.045 209.449 188.764 209.748 189.295 210.346C189.83 210.939 190.098 211.748 190.098 212.771ZM185.24 212.771C185.24 213.58 185.398 214.195 185.715 214.617C186.035 215.035 186.506 215.244 187.127 215.244C187.74 215.244 188.207 215.035 188.527 214.617C188.848 214.195 189.008 213.58 189.008 212.771C189.008 211.963 188.846 211.355 188.521 210.949C188.201 210.539 187.73 210.334 187.109 210.334C185.863 210.334 185.24 211.146 185.24 212.771ZM196.156 216V211.887C196.156 211.363 196.039 210.975 195.805 210.721C195.574 210.463 195.211 210.334 194.715 210.334C194.055 210.334 193.574 210.518 193.273 210.885C192.977 211.248 192.828 211.842 192.828 212.666V216H191.773V209.566H192.623L192.781 210.445H192.84C193.039 210.129 193.318 209.885 193.678 209.713C194.037 209.537 194.434 209.449 194.867 209.449C195.656 209.449 196.242 209.641 196.625 210.023C197.008 210.406 197.199 211.002 197.199 211.811V216H196.156ZM203.381 214.225C203.381 214.826 203.156 215.293 202.707 215.625C202.258 215.953 201.627 216.117 200.814 216.117C199.967 216.117 199.293 215.982 198.793 215.713V214.752C199.5 215.096 200.182 215.268 200.838 215.268C201.369 215.268 201.756 215.182 201.998 215.01C202.24 214.838 202.361 214.607 202.361 214.318C202.361 214.064 202.244 213.85 202.01 213.674C201.779 213.498 201.367 213.297 200.773 213.07C200.168 212.836 199.742 212.637 199.496 212.473C199.25 212.305 199.068 212.117 198.951 211.91C198.838 211.703 198.781 211.451 198.781 211.154C198.781 210.627 198.996 210.211 199.426 209.906C199.855 209.602 200.445 209.449 201.195 209.449C201.926 209.449 202.609 209.594 203.246 209.883L202.889 210.721C202.236 210.447 201.648 210.311 201.125 210.311C200.688 210.311 200.355 210.381 200.129 210.521C199.902 210.658 199.789 210.848 199.789 211.09C199.789 211.324 199.887 211.52 200.082 211.676C200.277 211.828 200.732 212.041 201.447 212.314C201.982 212.514 202.377 212.699 202.631 212.871C202.889 213.043 203.078 213.236 203.199 213.451C203.32 213.666 203.381 213.924 203.381 214.225Z" fill="black"/>
<line x1="104" y1="176" x2="154" y2="176" stroke="black" stroke-width="2"/>
<g opacity="0.7">
<path d="M176 76.5C176 89.6167 170.683 101.492 162.088 110.088C153.492 118.683 141.617 124 128.5 124C115.383 124 103.508 118.683 94.9124 110.088C86.3166 101.492 81 89.6167 81 76.5C81 63.3832 86.3166 51.5082 94.9124 42.9124C103.508 34.3166 115.383 29 128.5 29C141.617 29 153.492 34.3166 162.088 42.9124C170.683 51.5082 176 63.3832 176 76.5Z" fill="#E5E5E5"/>
<path d="M175.5 76.5C175.5 89.4788 170.24 101.228 161.734 109.734C153.228 118.24 141.479 123.5 128.5 123.5C115.521 123.5 103.772 118.24 95.266 109.734C86.7601 101.228 81.5 89.4788 81.5 76.5C81.5 63.5211 86.7601 51.7718 95.266 43.266C103.772 34.7601 115.521 29.5 128.5 29.5C141.479 29.5 153.228 34.7601 161.734 43.266C170.24 51.7718 175.5 63.5211 175.5 76.5Z" stroke="black" stroke-opacity="0.3"/>
</g>
</g>
<defs>
<filter id="filter0_d" x="0" y="0" width="258" height="258" filterUnits="userSpaceOnUse" color-interpolation-filters="sRGB">
<feFlood flood-opacity="0" result="BackgroundImageFix"/>
<feColorMatrix in="SourceAlpha" type="matrix" values="0 0 0 0 0 0 0 0 0 0 0 0 0 0 0 0 0 0 127 0"/>
<feOffset dy="4"/>
<feGaussianBlur stdDeviation="2"/>
<feColorMatrix type="matrix" values="0 0 0 0 0 0 0 0 0 0 0 0 0 0 0 0 0 0 0.25 0"/>
<feBlend mode="normal" in2="BackgroundImageFix" result="effect1_dropShadow"/>
<feBlend mode="normal" in="SourceGraphic" in2="effect1_dropShadow" result="shape"/>
</filter>
</defs>
</svg>
