<svg width="330" height="330" viewBox="0 0 330 330" fill="none" xmlns="http://www.w3.org/2000/svg">
<g opacity="0.7">
<path d="M330 165C330 210.563 311.532 251.813 281.673 281.673C251.813 311.532 210.563 330 165 330C119.437 330 78.1865 311.532 48.3274 281.673C18.4683 251.813 0 210.563 0 165C0 119.436 18.4683 78.1865 48.3274 48.3274C78.1865 18.4682 119.437 -3.05176e-05 165 -3.05176e-05C210.563 -3.05176e-05 251.813 18.4682 281.673 48.3274C311.532 78.1865 330 119.436 330 165Z" fill="#E5E5E5"/>
<path d="M329.5 165C329.5 210.426 311.088 251.55 281.319 281.319C251.55 311.088 210.426 329.5 165 329.5C119.574 329.5 78.4501 311.088 48.6809 281.319C18.9117 251.55 0.5 210.426 0.5 165C0.5 119.574 18.9117 78.4501 48.6809 48.6809C78.4501 18.9117 119.574 0.499969 165 0.499969C210.426 0.499969 251.55 18.9117 281.319 48.6809C311.088 78.4501 329.5 119.574 329.5 165Z" stroke="black" stroke-opacity="0.3"/>
</g>
</svg>
