<svg width="108" height="108" viewBox="0 0 108 108" fill="none" xmlns="http://www.w3.org/2000/svg">
<g opacity="0.7">
<g filter="url(#filter0_d)">
<path d="M104 50C104 63.8071 98.4036 76.3071 89.3553 85.3553C80.3071 94.4036 67.8071 100 54 100C40.1929 100 27.6929 94.4036 18.6447 85.3553C9.59644 76.3071 4 63.8071 4 50C4 36.1929 9.59644 23.6929 18.6447 14.6447C27.6929 5.59644 40.1929 0 54 0C67.8071 0 80.3071 5.59644 89.3553 14.6447C98.4036 23.6929 104 36.1929 104 50Z" fill="#E5E5E5"/>
<path d="M103.5 50C103.5 63.6692 97.9601 76.0435 89.0018 85.0018C80.0435 93.9601 67.6692 99.5 54 99.5C40.3308 99.5 27.9565 93.9601 18.9982 85.0018C10.0399 76.0435 4.5 63.6692 4.5 50C4.5 36.3308 10.0399 23.9565 18.9982 14.9982C27.9565 6.03993 40.3308 0.5 54 0.5C67.6692 0.5 80.0435 6.03993 89.0018 14.9982C97.9601 23.9565 103.5 36.3308 103.5 50Z" stroke="black" stroke-opacity="0.3"/>
</g>
</g>
<defs>
<filter id="filter0_d" x="0" y="0" width="108" height="108" filterUnits="userSpaceOnUse" color-interpolation-filters="sRGB">
<feFlood flood-opacity="0" result="BackgroundImageFix"/>
<feColorMatrix in="SourceAlpha" type="matrix" values="0 0 0 0 0 0 0 0 0 0 0 0 0 0 0 0 0 0 127 0"/>
<feOffset dy="4"/>
<feGaussianBlur stdDeviation="2"/>
<feColorMatrix type="matrix" values="0 0 0 0 0 0 0 0 0 0 0 0 0 0 0 0 0 0 0.25 0"/>
<feBlend mode="normal" in2="BackgroundImageFix" result="effect1_dropShadow"/>
<feBlend mode="normal" in="SourceGraphic" in2="effect1_dropShadow" result="shape"/>
</filter>
</defs>
</svg>
